solid OpenSCAD_Model
  facet normal -1 0 0
    outer loop
      vertex -16 11.75 0.25
      vertex -16 16 3.5
      vertex -16 16 -3.5
    endloop
  endfacet
  facet normal -1 0 0
    outer loop
      vertex -16 13.5 6
      vertex -16 16 3.5
      vertex -16 13.5 4.25
    endloop
  endfacet
  facet normal -1 -0 0
    outer loop
      vertex -16 16 3.5
      vertex -16 13.3776 3.47746
      vertex -16 13.5 4.25
    endloop
  endfacet
  facet normal -1 0 0
    outer loop
      vertex -16 16 3.5
      vertex -16 13.0225 2.78054
      vertex -16 13.3776 3.47746
    endloop
  endfacet
  facet normal -1 0 0
    outer loop
      vertex -16 16 3.5
      vertex -16 11.75 0.25
      vertex -16 13.0225 2.78054
    endloop
  endfacet
  facet normal -1 0 0
    outer loop
      vertex -16 13.0225 2.78054
      vertex -16 11.75 0.25
      vertex -16 12.4695 2.22746
    endloop
  endfacet
  facet normal -1 0 0
    outer loop
      vertex -16 12.4695 2.22746
      vertex -16 11.75 0.25
      vertex -16 11.7725 1.87236
    endloop
  endfacet
  facet normal -1 0 0
    outer loop
      vertex -16 16 -3.5
      vertex -16 10.25 0.25
      vertex -16 11.75 0.25
    endloop
  endfacet
  facet normal -1 0 0
    outer loop
      vertex -16 10.25 0.25
      vertex -16 10.2275 1.87236
      vertex -16 10.25 1.86879
    endloop
  endfacet
  facet normal -1 0 0
    outer loop
      vertex -16 10.25 0.25
      vertex -16 9.53054 2.22746
      vertex -16 10.2275 1.87236
    endloop
  endfacet
  facet normal -1 0 0
    outer loop
      vertex -16 10.25 0.25
      vertex -16 8.97746 2.78054
      vertex -16 9.53054 2.22746
    endloop
  endfacet
  facet normal -1 0 0
    outer loop
      vertex -16 6 3.5
      vertex -16 8.97746 2.78054
      vertex -16 10.25 0.25
    endloop
  endfacet
  facet normal -1 0 0
    outer loop
      vertex -16 6 3.5
      vertex -16 8.5 6
      vertex -16 8.5 4.25
    endloop
  endfacet
  facet normal -1 0 0
    outer loop
      vertex -16 6 3.5
      vertex -16 8.5 4.25
      vertex -16 8.62236 3.47746
    endloop
  endfacet
  facet normal -1 -0 0
    outer loop
      vertex -16 8.5 6
      vertex -16 6 3.5
      vertex -16 7.25 8.75
    endloop
  endfacet
  facet normal -1 0 0
    outer loop
      vertex -16 8.97746 2.78054
      vertex -16 6 3.5
      vertex -16 8.62236 3.47746
    endloop
  endfacet
  facet normal -1 0 0
    outer loop
      vertex -16 10.25 0.25
      vertex -16 -8.04894 0.690983
      vertex -16 6 3.5
    endloop
  endfacet
  facet normal -1 0 0
    outer loop
      vertex -16 -9 0
      vertex -16 10.25 0.25
      vertex -16 16 -3.5
    endloop
  endfacet
  facet normal -1 -0 0
    outer loop
      vertex -16 10.25 0.25
      vertex -16 -9 0
      vertex -16 -8.04894 0.690983
    endloop
  endfacet
  facet normal -1 -0 0
    outer loop
      vertex -16 -9 0
      vertex -16 -16 -3.5
      vertex -16 -9.95106 0.690983
    endloop
  endfacet
  facet normal -1 0 0
    outer loop
      vertex -16 -16 -3.5
      vertex -16 -9 0
      vertex -16 16 -3.5
    endloop
  endfacet
  facet normal -1 0 0
    outer loop
      vertex -16 16 3.5
      vertex -16 13.5 6
      vertex -16 14.75 8.75
    endloop
  endfacet
  facet normal -1 0 0
    outer loop
      vertex -16 13.3812 6.74982
      vertex -16 14.75 8.75
      vertex -16 13.5 6
    endloop
  endfacet
  facet normal -1 0 0
    outer loop
      vertex -16 13.3776 6.77254
      vertex -16 14.75 8.75
      vertex -16 13.3812 6.74982
    endloop
  endfacet
  facet normal -1 0 0
    outer loop
      vertex -16 13.0225 7.46946
      vertex -16 14.75 8.75
      vertex -16 13.3776 6.77254
    endloop
  endfacet
  facet normal -1 0 0
    outer loop
      vertex -16 13 8.75
      vertex -16 13.0225 7.46946
      vertex -16 13 7.492
    endloop
  endfacet
  facet normal -1 0 0
    outer loop
      vertex -16 13.0225 7.46946
      vertex -16 13 8.75
      vertex -16 14.75 8.75
    endloop
  endfacet
  facet normal -1 0 0
    outer loop
      vertex -16 11.7725 1.87236
      vertex -16 11.75 0.25
      vertex -16 11.75 1.86879
    endloop
  endfacet
  facet normal -1 0 0
    outer loop
      vertex -16 8.97746 7.46946
      vertex -16 9 8.75
      vertex -16 9 7.492
    endloop
  endfacet
  facet normal -1 0 0
    outer loop
      vertex -16 7.25 8.75
      vertex -16 8.97746 7.46946
      vertex -16 8.62236 6.77254
    endloop
  endfacet
  facet normal -1 0 0
    outer loop
      vertex -16 8.97746 7.46946
      vertex -16 7.25 8.75
      vertex -16 9 8.75
    endloop
  endfacet
  facet normal -1 0 0
    outer loop
      vertex -16 8.61876 6.74982
      vertex -16 7.25 8.75
      vertex -16 8.62236 6.77254
    endloop
  endfacet
  facet normal -1 0 0
    outer loop
      vertex -16 7.25 8.75
      vertex -16 8.61876 6.74982
      vertex -16 8.5 6
    endloop
  endfacet
  facet normal -1 0 0
    outer loop
      vertex -16 -8.41221 1.80902
      vertex -16 6 3.5
      vertex -16 -8.04894 0.690983
    endloop
  endfacet
  facet normal -1 0 0
    outer loop
      vertex -16 -16 3.5
      vertex -16 -8.41221 1.80902
      vertex -16 -9.58778 1.80902
    endloop
  endfacet
  facet normal -1 0 0
    outer loop
      vertex -16 -16 3.5
      vertex -16 -9.95106 0.690983
      vertex -16 -16 -3.5
    endloop
  endfacet
  facet normal -1 0 0
    outer loop
      vertex -16 -8.41221 1.80902
      vertex -16 -16 3.5
      vertex -16 6 3.5
    endloop
  endfacet
  facet normal -1 0 0
    outer loop
      vertex -16 -9.95106 0.690983
      vertex -16 -16 3.5
      vertex -16 -9.58778 1.80902
    endloop
  endfacet
  facet normal 0 0 1
    outer loop
      vertex -13.5 6 3.5
      vertex -16 6 3.5
      vertex -13.5 -3 3.5
    endloop
  endfacet
  facet normal 0 0 1
    outer loop
      vertex -10.75 -3 3.5
      vertex -12.5 -10.25 3.5
      vertex -10.75 -10.25 3.5
    endloop
  endfacet
  facet normal -0 0 1
    outer loop
      vertex -13.5 -3 3.5
      vertex -12.5 -10.25 3.5
      vertex -10.75 -3 3.5
    endloop
  endfacet
  facet normal 0 0 1
    outer loop
      vertex -16 -16 3.5
      vertex -12.5 -10.25 3.5
      vertex -13.5 -3 3.5
    endloop
  endfacet
  facet normal 0 0 1
    outer loop
      vertex -16 -16 3.5
      vertex -13.5 -3 3.5
      vertex -16 6 3.5
    endloop
  endfacet
  facet normal 0 0 1
    outer loop
      vertex -12.5 -10.25 3.5
      vertex -16 -16 3.5
      vertex -12.5 -16 3.5
    endloop
  endfacet
  facet normal -0 0 1
    outer loop
      vertex 10.75 -3 3.5
      vertex 12.5 -10.25 3.5
      vertex 13.5 -3 3.5
    endloop
  endfacet
  facet normal 0 0 1
    outer loop
      vertex 12.5 -10.25 3.5
      vertex 10.75 -3 3.5
      vertex 10.75 -10.25 3.5
    endloop
  endfacet
  facet normal 0 0 1
    outer loop
      vertex 13.5 -3 3.5
      vertex 16 6 3.5
      vertex 13.5 6 3.5
    endloop
  endfacet
  facet normal 0 0 1
    outer loop
      vertex 16 6 3.5
      vertex 13.5 -3 3.5
      vertex 16 -16 3.5
    endloop
  endfacet
  facet normal -0 0 1
    outer loop
      vertex 12.5 -10.25 3.5
      vertex 16 -16 3.5
      vertex 13.5 -3 3.5
    endloop
  endfacet
  facet normal 0 0 1
    outer loop
      vertex 16 -16 3.5
      vertex 12.5 -10.25 3.5
      vertex 12.5 -16 3.5
    endloop
  endfacet
  facet normal 1 0 0
    outer loop
      vertex 16 9 8.75
      vertex 16 8.97746 7.46946
      vertex 16 9 7.492
    endloop
  endfacet
  facet normal 1 -0 0
    outer loop
      vertex 16 7.25 8.75
      vertex 16 8.97746 7.46946
      vertex 16 9 8.75
    endloop
  endfacet
  facet normal 1 0 0
    outer loop
      vertex 16 7.25 8.75
      vertex 16 8.5036 6.02272
      vertex 16 8.62236 6.77254
    endloop
  endfacet
  facet normal 1 0 0
    outer loop
      vertex 16 6 3.5
      vertex 16 8.5 6
      vertex 16 7.25 8.75
    endloop
  endfacet
  facet normal 1 0 0
    outer loop
      vertex 16 8.5036 6.02272
      vertex 16 7.25 8.75
      vertex 16 8.5 6
    endloop
  endfacet
  facet normal 1 0 0
    outer loop
      vertex 16 8.97746 7.46946
      vertex 16 7.25 8.75
      vertex 16 8.62236 6.77254
    endloop
  endfacet
  facet normal 1 0 0
    outer loop
      vertex 16 10.25 1.86879
      vertex 16 10.2275 1.87236
      vertex 16 10.25 0.25
    endloop
  endfacet
  facet normal 1 0 0
    outer loop
      vertex 16 14.75 8.75
      vertex 16 13.4964 6.02272
      vertex 16 13.5 6
    endloop
  endfacet
  facet normal 1 0 0
    outer loop
      vertex 16 14.75 8.75
      vertex 16 13.3776 6.77254
      vertex 16 13.4964 6.02272
    endloop
  endfacet
  facet normal 1 0 0
    outer loop
      vertex 16 14.75 8.75
      vertex 16 13.0225 7.46946
      vertex 16 13.3776 6.77254
    endloop
  endfacet
  facet normal 1 -0 0
    outer loop
      vertex 16 13 8.75
      vertex 16 13.0225 7.46946
      vertex 16 14.75 8.75
    endloop
  endfacet
  facet normal 1 0 0
    outer loop
      vertex 16 13.0225 7.46946
      vertex 16 13 8.75
      vertex 16 13 7.492
    endloop
  endfacet
  facet normal 1 -0 0
    outer loop
      vertex 16 13.5 6
      vertex 16 16 3.5
      vertex 16 14.75 8.75
    endloop
  endfacet
  facet normal 1 0 0
    outer loop
      vertex 16 16 3.5
      vertex 16 13.5 6
      vertex 16 13.5 4.25
    endloop
  endfacet
  facet normal 1 0 0
    outer loop
      vertex 16 13.3776 3.47746
      vertex 16 16 3.5
      vertex 16 13.5 4.25
    endloop
  endfacet
  facet normal 1 0 0
    outer loop
      vertex 16 13.0225 2.78054
      vertex 16 16 3.5
      vertex 16 13.3776 3.47746
    endloop
  endfacet
  facet normal 1 0 0
    outer loop
      vertex 16 11.75 0.25
      vertex 16 16 3.5
      vertex 16 13.0225 2.78054
    endloop
  endfacet
  facet normal 1 0 0
    outer loop
      vertex 16 11.75 0.25
      vertex 16 13.0225 2.78054
      vertex 16 12.4695 2.22746
    endloop
  endfacet
  facet normal 1 0 0
    outer loop
      vertex 16 11.75 0.25
      vertex 16 12.4695 2.22746
      vertex 16 11.7725 1.87236
    endloop
  endfacet
  facet normal 1 0 0
    outer loop
      vertex 16 11.75 0.25
      vertex 16 11.7725 1.87236
      vertex 16 11.75 1.86879
    endloop
  endfacet
  facet normal 1 0 0
    outer loop
      vertex 16 16 3.5
      vertex 16 11.75 0.25
      vertex 16 16 -3.5
    endloop
  endfacet
  facet normal 1 -0 0
    outer loop
      vertex 16 10.25 0.25
      vertex 16 16 -3.5
      vertex 16 11.75 0.25
    endloop
  endfacet
  facet normal 1 0 0
    outer loop
      vertex 16 9.53054 2.22746
      vertex 16 10.25 0.25
      vertex 16 10.2275 1.87236
    endloop
  endfacet
  facet normal 1 0 0
    outer loop
      vertex 16 8.97746 2.78054
      vertex 16 10.25 0.25
      vertex 16 9.53054 2.22746
    endloop
  endfacet
  facet normal 1 0 0
    outer loop
      vertex 16 6 3.5
      vertex 16 8.97746 2.78054
      vertex 16 8.62236 3.47746
    endloop
  endfacet
  facet normal 1 0 0
    outer loop
      vertex 16 8.5 6
      vertex 16 6 3.5
      vertex 16 8.5 4.25
    endloop
  endfacet
  facet normal 1 0 0
    outer loop
      vertex 16 8.5 4.25
      vertex 16 6 3.5
      vertex 16 8.62236 3.47746
    endloop
  endfacet
  facet normal 1 0 0
    outer loop
      vertex 16 8.97746 2.78054
      vertex 16 6 3.5
      vertex 16 10.25 0.25
    endloop
  endfacet
  facet normal 1 -0 0
    outer loop
      vertex 16 -8.04894 0.690983
      vertex 16 10.25 0.25
      vertex 16 6 3.5
    endloop
  endfacet
  facet normal 1 0 0
    outer loop
      vertex 16 -9 0
      vertex 16 10.25 0.25
      vertex 16 -8.04894 0.690983
    endloop
  endfacet
  facet normal 1 0 0
    outer loop
      vertex 16 10.25 0.25
      vertex 16 -9 0
      vertex 16 16 -3.5
    endloop
  endfacet
  facet normal 1 0 0
    outer loop
      vertex 16 -16 -3.5
      vertex 16 -9.95106 0.690983
      vertex 16 -16 3.5
    endloop
  endfacet
  facet normal 1 0 0
    outer loop
      vertex 16 -9 0
      vertex 16 -16 -3.5
      vertex 16 16 -3.5
    endloop
  endfacet
  facet normal 1 0 0
    outer loop
      vertex 16 -9.95106 0.690983
      vertex 16 -16 -3.5
      vertex 16 -9 0
    endloop
  endfacet
  facet normal 1 0 0
    outer loop
      vertex 16 6 3.5
      vertex 16 -8.41221 1.80902
      vertex 16 -8.04894 0.690983
    endloop
  endfacet
  facet normal 1 -0 0
    outer loop
      vertex 16 -16 3.5
      vertex 16 -8.41221 1.80902
      vertex 16 6 3.5
    endloop
  endfacet
  facet normal 1 0 0
    outer loop
      vertex 16 -9.58778 1.80902
      vertex 16 -16 3.5
      vertex 16 -9.95106 0.690983
    endloop
  endfacet
  facet normal 1 0 0
    outer loop
      vertex 16 -8.41221 1.80902
      vertex 16 -16 3.5
      vertex 16 -9.58778 1.80902
    endloop
  endfacet
  facet normal 0 0 -1
    outer loop
      vertex 10 -10.75 -3.5
      vertex 10.75 -10.5 -3.5
      vertex 11.7678 -11.4822 -3.5
    endloop
  endfacet
  facet normal 0 0 -1
    outer loop
      vertex -7.5 -13.25 -3.5
      vertex 8.23223 -11.4822 -3.5
      vertex 7.5 -13.25 -3.5
    endloop
  endfacet
  facet normal 0 0 -1
    outer loop
      vertex -8.23223 -11.4822 -3.5
      vertex 8.23223 -11.4822 -3.5
      vertex -7.5 -13.25 -3.5
    endloop
  endfacet
  facet normal 0 0 -1
    outer loop
      vertex 8.23223 -11.4822 -3.5
      vertex -8.23223 -11.4822 -3.5
      vertex 10 -10.75 -3.5
    endloop
  endfacet
  facet normal 0 0 -1
    outer loop
      vertex -10 -10.75 -3.5
      vertex 10 -10.75 -3.5
      vertex -8.23223 -11.4822 -3.5
    endloop
  endfacet
  facet normal 0 0 -1
    outer loop
      vertex 10 -10.75 -3.5
      vertex -10 -10.75 -3.5
      vertex 10.75 -10.5 -3.5
    endloop
  endfacet
  facet normal 0 0 -1
    outer loop
      vertex -10 -10.75 -3.5
      vertex -10.75 -10.5 -3.5
      vertex 10.75 -10.5 -3.5
    endloop
  endfacet
  facet normal 0 0 -1
    outer loop
      vertex -11.7678 -11.4822 -3.5
      vertex -10.75 -10.5 -3.5
      vertex -10 -10.75 -3.5
    endloop
  endfacet
  facet normal 0 0 -1
    outer loop
      vertex -13.5 -3 -3.5
      vertex -10.75 -10.5 -3.5
      vertex -11.7678 -11.4822 -3.5
    endloop
  endfacet
  facet normal 0 0 -1
    outer loop
      vertex -16 -16 -3.5
      vertex -11.7678 -11.4822 -3.5
      vertex -12.5 -13.25 -3.5
    endloop
  endfacet
  facet normal 0 0 -1
    outer loop
      vertex -10.75 -10.5 -3.5
      vertex -13.5 -3 -3.5
      vertex -10.75 -3 -3.5
    endloop
  endfacet
  facet normal 0 0 -1
    outer loop
      vertex 16 -16 -3.5
      vertex 13.5 -3 -3.5
      vertex 16 16 -3.5
    endloop
  endfacet
  facet normal 0 0 -1
    outer loop
      vertex 11.7678 -11.4822 -3.5
      vertex 16 -16 -3.5
      vertex 12.5 -13.25 -3.5
    endloop
  endfacet
  facet normal 0 0 -1
    outer loop
      vertex 16 -16 -3.5
      vertex 11.7678 -15.0178 -3.5
      vertex 12.5 -13.25 -3.5
    endloop
  endfacet
  facet normal 0 0 -1
    outer loop
      vertex 16 -16 -3.5
      vertex 10 -15.75 -3.5
      vertex 11.7678 -15.0178 -3.5
    endloop
  endfacet
  facet normal 0 0 -1
    outer loop
      vertex 8.23223 -15.0178 -3.5
      vertex -7.5 -13.25 -3.5
      vertex 7.5 -13.25 -3.5
    endloop
  endfacet
  facet normal 0 0 -1
    outer loop
      vertex -8.23223 -15.0178 -3.5
      vertex 8.23223 -15.0178 -3.5
      vertex 10 -15.75 -3.5
    endloop
  endfacet
  facet normal 0 0 -1
    outer loop
      vertex 8.23223 -15.0178 -3.5
      vertex -8.23223 -15.0178 -3.5
      vertex -7.5 -13.25 -3.5
    endloop
  endfacet
  facet normal 0 0 -1
    outer loop
      vertex -10 -15.75 -3.5
      vertex 10 -15.75 -3.5
      vertex 16 -16 -3.5
    endloop
  endfacet
  facet normal 0 0 -1
    outer loop
      vertex 10 -15.75 -3.5
      vertex -10 -15.75 -3.5
      vertex -8.23223 -15.0178 -3.5
    endloop
  endfacet
  facet normal 0 0 -1
    outer loop
      vertex -16 -16 -3.5
      vertex -10 -15.75 -3.5
      vertex 16 -16 -3.5
    endloop
  endfacet
  facet normal 0 0 -1
    outer loop
      vertex -16 -16 -3.5
      vertex -11.7678 -15.0178 -3.5
      vertex -10 -15.75 -3.5
    endloop
  endfacet
  facet normal 0 0 -1
    outer loop
      vertex -16 -16 -3.5
      vertex -12.5 -13.25 -3.5
      vertex -11.7678 -15.0178 -3.5
    endloop
  endfacet
  facet normal -0 0 -1
    outer loop
      vertex -11.7678 -11.4822 -3.5
      vertex -16 -16 -3.5
      vertex -13.5 -3 -3.5
    endloop
  endfacet
  facet normal 0 0 -1
    outer loop
      vertex -16 16 -3.5
      vertex -13.5 -3 -3.5
      vertex -16 -16 -3.5
    endloop
  endfacet
  facet normal 0 0 -1
    outer loop
      vertex -13.5 -3 -3.5
      vertex -16 16 -3.5
      vertex -13.5 16 -3.5
    endloop
  endfacet
  facet normal -0 0 -1
    outer loop
      vertex 16 16 -3.5
      vertex 13.5 -3 -3.5
      vertex 13.5 16 -3.5
    endloop
  endfacet
  facet normal 0 0 -1
    outer loop
      vertex 16 -16 -3.5
      vertex 11.7678 -11.4822 -3.5
      vertex 13.5 -3 -3.5
    endloop
  endfacet
  facet normal 0 0 -1
    outer loop
      vertex 10.75 -10.5 -3.5
      vertex 13.5 -3 -3.5
      vertex 11.7678 -11.4822 -3.5
    endloop
  endfacet
  facet normal -0 0 -1
    outer loop
      vertex 13.5 -3 -3.5
      vertex 10.75 -10.5 -3.5
      vertex 10.75 -3 -3.5
    endloop
  endfacet
  facet normal 0 -1 0
    outer loop
      vertex -16 -16 3.5
      vertex -12.5 -16 -0.25
      vertex -12.5 -16 3.5
    endloop
  endfacet
  facet normal 0 -1 -0
    outer loop
      vertex -12.5 -16 -0.25
      vertex -16 -16 -3.5
      vertex 12.5 -16 -0.25
    endloop
  endfacet
  facet normal 0 -1 0
    outer loop
      vertex -16 -16 -3.5
      vertex -12.5 -16 -0.25
      vertex -16 -16 3.5
    endloop
  endfacet
  facet normal 0 -1 0
    outer loop
      vertex 12.5 -16 -0.25
      vertex 16 -16 3.5
      vertex 12.5 -16 3.5
    endloop
  endfacet
  facet normal 0 -1 0
    outer loop
      vertex 12.5 -16 -0.25
      vertex 16 -16 -3.5
      vertex 16 -16 3.5
    endloop
  endfacet
  facet normal 0 -1 0
    outer loop
      vertex 16 -16 -3.5
      vertex 12.5 -16 -0.25
      vertex -16 -16 -3.5
    endloop
  endfacet
  facet normal 0 1 -0
    outer loop
      vertex -13.5 16 -3.5
      vertex -16 16 3.5
      vertex -13.5 16 3.5
    endloop
  endfacet
  facet normal 0 1 0
    outer loop
      vertex -16 16 3.5
      vertex -13.5 16 -3.5
      vertex -16 16 -3.5
    endloop
  endfacet
  facet normal 0 1 -0
    outer loop
      vertex 16 16 -3.5
      vertex 13.5 16 3.5
      vertex 16 16 3.5
    endloop
  endfacet
  facet normal 0 1 0
    outer loop
      vertex 13.5 16 3.5
      vertex 16 16 -3.5
      vertex 13.5 16 -3.5
    endloop
  endfacet
  facet normal 0 -0.972806 0.231621
    outer loop
      vertex -16 6 3.5
      vertex -13.5 7.25 8.75
      vertex -16 7.25 8.75
    endloop
  endfacet
  facet normal 0 -0.972806 0.231621
    outer loop
      vertex -13.5 7.25 8.75
      vertex -16 6 3.5
      vertex -13.5 6 3.5
    endloop
  endfacet
  facet normal 0 -0.972806 0.231621
    outer loop
      vertex 13.5 6 3.5
      vertex 16 7.25 8.75
      vertex 13.5 7.25 8.75
    endloop
  endfacet
  facet normal 0 -0.972806 0.231621
    outer loop
      vertex 16 7.25 8.75
      vertex 13.5 6 3.5
      vertex 16 6 3.5
    endloop
  endfacet
  facet normal -0 0 1
    outer loop
      vertex -16 9 8.75
      vertex -13.5 7.25 8.75
      vertex -13.5 9 8.75
    endloop
  endfacet
  facet normal 0 0 1
    outer loop
      vertex -13.5 7.25 8.75
      vertex -16 9 8.75
      vertex -16 7.25 8.75
    endloop
  endfacet
  facet normal -0 0 1
    outer loop
      vertex 13.5 14.75 8.75
      vertex 16 13 8.75
      vertex 16 14.75 8.75
    endloop
  endfacet
  facet normal 0 0 1
    outer loop
      vertex 16 13 8.75
      vertex 13.5 14.75 8.75
      vertex 13.5 13 8.75
    endloop
  endfacet
  facet normal -0 0 1
    outer loop
      vertex -16 14.75 8.75
      vertex -13.5 13 8.75
      vertex -13.5 14.75 8.75
    endloop
  endfacet
  facet normal 0 0 1
    outer loop
      vertex -13.5 13 8.75
      vertex -16 14.75 8.75
      vertex -16 13 8.75
    endloop
  endfacet
  facet normal -0 0 1
    outer loop
      vertex 13.5 9 8.75
      vertex 16 7.25 8.75
      vertex 16 9 8.75
    endloop
  endfacet
  facet normal 0 0 1
    outer loop
      vertex 16 7.25 8.75
      vertex 13.5 9 8.75
      vertex 13.5 7.25 8.75
    endloop
  endfacet
  facet normal 0 0.972806 0.231621
    outer loop
      vertex 16 16 3.5
      vertex 13.5 14.75 8.75
      vertex 16 14.75 8.75
    endloop
  endfacet
  facet normal 0 0.972806 0.231621
    outer loop
      vertex 13.5 14.75 8.75
      vertex 16 16 3.5
      vertex 13.5 16 3.5
    endloop
  endfacet
  facet normal 0 0.972806 0.231621
    outer loop
      vertex -13.5 16 3.5
      vertex -16 14.75 8.75
      vertex -13.5 14.75 8.75
    endloop
  endfacet
  facet normal 0 0.972806 0.231621
    outer loop
      vertex -16 14.75 8.75
      vertex -13.5 16 3.5
      vertex -16 16 3.5
    endloop
  endfacet
  facet normal -0.809017 -0.587785 0
    outer loop
      vertex -8.75 -13.25 -0.95
      vertex -9.61373 -12.0612 -0.25
      vertex -9.61373 -12.0612 -0.95
    endloop
  endfacet
  facet normal -0.809017 -0.587785 0
    outer loop
      vertex -9.61373 -12.0612 -0.25
      vertex -8.75 -13.25 -0.95
      vertex -8.75 -13.25 -0.25
    endloop
  endfacet
  facet normal 1 -0 0
    outer loop
      vertex -11.0113 -13.9847 -0.25
      vertex -11.0113 -12.5153 -0.95
      vertex -11.0113 -12.5153 -0.25
    endloop
  endfacet
  facet normal 1 0 0
    outer loop
      vertex -11.0113 -12.5153 -0.95
      vertex -11.0113 -13.9847 -0.25
      vertex -11.0113 -13.9847 -0.95
    endloop
  endfacet
  facet normal 0.309017 -0.951056 0
    outer loop
      vertex -11.0113 -12.5153 -0.95
      vertex -9.61373 -12.0612 -0.25
      vertex -11.0113 -12.5153 -0.25
    endloop
  endfacet
  facet normal 0.309017 -0.951056 0
    outer loop
      vertex -9.61373 -12.0612 -0.25
      vertex -11.0113 -12.5153 -0.95
      vertex -9.61373 -12.0612 -0.95
    endloop
  endfacet
  facet normal 0 0 1
    outer loop
      vertex -9.61373 -12.0612 -0.95
      vertex -9.61373 -14.4388 -0.95
      vertex -8.75 -13.25 -0.95
    endloop
  endfacet
  facet normal -0 0 1
    outer loop
      vertex -11.0113 -12.5153 -0.95
      vertex -9.61373 -14.4388 -0.95
      vertex -9.61373 -12.0612 -0.95
    endloop
  endfacet
  facet normal 0 0 1
    outer loop
      vertex -9.61373 -14.4388 -0.95
      vertex -11.0113 -12.5153 -0.95
      vertex -11.0113 -13.9847 -0.95
    endloop
  endfacet
  facet normal -0.809017 0.587785 0
    outer loop
      vertex -9.61373 -14.4388 -0.95
      vertex -8.75 -13.25 -0.25
      vertex -8.75 -13.25 -0.95
    endloop
  endfacet
  facet normal -0.809017 0.587785 0
    outer loop
      vertex -8.75 -13.25 -0.25
      vertex -9.61373 -14.4388 -0.95
      vertex -9.61373 -14.4388 -0.25
    endloop
  endfacet
  facet normal 0.309017 0.951056 -0
    outer loop
      vertex -9.61373 -14.4388 -0.95
      vertex -11.0113 -13.9847 -0.25
      vertex -9.61373 -14.4388 -0.25
    endloop
  endfacet
  facet normal 0.309017 0.951056 0
    outer loop
      vertex -11.0113 -13.9847 -0.25
      vertex -9.61373 -14.4388 -0.95
      vertex -11.0113 -13.9847 -0.95
    endloop
  endfacet
  facet normal -0.92388 -0.382683 0
    outer loop
      vertex -7.5 -13.25 -3.5
      vertex -8.23223 -11.4822 -1.25
      vertex -8.23223 -11.4822 -3.5
    endloop
  endfacet
  facet normal -0.92388 -0.382683 0
    outer loop
      vertex -8.23223 -11.4822 -1.25
      vertex -7.5 -13.25 -3.5
      vertex -7.5 -13.25 -1.25
    endloop
  endfacet
  facet normal 0.92388 -0.382683 0
    outer loop
      vertex -12.5 -13.25 -1.25
      vertex -11.7678 -11.4822 -3.5
      vertex -11.7678 -11.4822 -1.25
    endloop
  endfacet
  facet normal 0.92388 -0.382683 0
    outer loop
      vertex -11.7678 -11.4822 -3.5
      vertex -12.5 -13.25 -1.25
      vertex -12.5 -13.25 -3.5
    endloop
  endfacet
  facet normal -0.382683 0.92388 0
    outer loop
      vertex -8.23223 -15.0178 -3.5
      vertex -10 -15.75 -1.25
      vertex -8.23223 -15.0178 -1.25
    endloop
  endfacet
  facet normal -0.382683 0.92388 0
    outer loop
      vertex -10 -15.75 -1.25
      vertex -8.23223 -15.0178 -3.5
      vertex -10 -15.75 -3.5
    endloop
  endfacet
  facet normal 0.382683 -0.92388 0
    outer loop
      vertex -11.7678 -11.4822 -3.5
      vertex -10 -10.75 -1.25
      vertex -11.7678 -11.4822 -1.25
    endloop
  endfacet
  facet normal 0.382683 -0.92388 0
    outer loop
      vertex -10 -10.75 -1.25
      vertex -11.7678 -11.4822 -3.5
      vertex -10 -10.75 -3.5
    endloop
  endfacet
  facet normal -0.382683 -0.92388 0
    outer loop
      vertex -10 -10.75 -3.5
      vertex -8.23223 -11.4822 -1.25
      vertex -10 -10.75 -1.25
    endloop
  endfacet
  facet normal -0.382683 -0.92388 -0
    outer loop
      vertex -8.23223 -11.4822 -1.25
      vertex -10 -10.75 -3.5
      vertex -8.23223 -11.4822 -3.5
    endloop
  endfacet
  facet normal 0 0 -1
    outer loop
      vertex -8.23223 -15.0178 -1.25
      vertex -8.23223 -11.4822 -1.25
      vertex -7.5 -13.25 -1.25
    endloop
  endfacet
  facet normal 0 0 -1
    outer loop
      vertex -10 -15.75 -1.25
      vertex -8.23223 -11.4822 -1.25
      vertex -8.23223 -15.0178 -1.25
    endloop
  endfacet
  facet normal 0 0 -1
    outer loop
      vertex -10 -15.75 -1.25
      vertex -10 -10.75 -1.25
      vertex -8.23223 -11.4822 -1.25
    endloop
  endfacet
  facet normal 0 0 -1
    outer loop
      vertex -11.7678 -15.0178 -1.25
      vertex -10 -10.75 -1.25
      vertex -10 -15.75 -1.25
    endloop
  endfacet
  facet normal 0 0 -1
    outer loop
      vertex -11.7678 -15.0178 -1.25
      vertex -11.7678 -11.4822 -1.25
      vertex -10 -10.75 -1.25
    endloop
  endfacet
  facet normal 0 -0 -1
    outer loop
      vertex -11.7678 -11.4822 -1.25
      vertex -11.7678 -15.0178 -1.25
      vertex -12.5 -13.25 -1.25
    endloop
  endfacet
  facet normal -0.92388 0.382683 0
    outer loop
      vertex -8.23223 -15.0178 -3.5
      vertex -7.5 -13.25 -1.25
      vertex -7.5 -13.25 -3.5
    endloop
  endfacet
  facet normal -0.92388 0.382683 0
    outer loop
      vertex -7.5 -13.25 -1.25
      vertex -8.23223 -15.0178 -3.5
      vertex -8.23223 -15.0178 -1.25
    endloop
  endfacet
  facet normal 0.382683 0.92388 -0
    outer loop
      vertex -10 -15.75 -3.5
      vertex -11.7678 -15.0178 -1.25
      vertex -10 -15.75 -1.25
    endloop
  endfacet
  facet normal 0.382683 0.92388 0
    outer loop
      vertex -11.7678 -15.0178 -1.25
      vertex -10 -15.75 -3.5
      vertex -11.7678 -15.0178 -3.5
    endloop
  endfacet
  facet normal 0.92388 0.382683 0
    outer loop
      vertex -11.7678 -15.0178 -1.25
      vertex -12.5 -13.25 -3.5
      vertex -12.5 -13.25 -1.25
    endloop
  endfacet
  facet normal 0.92388 0.382683 0
    outer loop
      vertex -12.5 -13.25 -3.5
      vertex -11.7678 -15.0178 -1.25
      vertex -11.7678 -15.0178 -3.5
    endloop
  endfacet
  facet normal -0.809017 -0.587786 0
    outer loop
      vertex 11.25 -13.25 -0.95
      vertex 10.3863 -12.0612 -0.25
      vertex 10.3863 -12.0612 -0.95
    endloop
  endfacet
  facet normal -0.809017 -0.587786 0
    outer loop
      vertex 10.3863 -12.0612 -0.25
      vertex 11.25 -13.25 -0.95
      vertex 11.25 -13.25 -0.25
    endloop
  endfacet
  facet normal 1 -0 0
    outer loop
      vertex 8.98873 -13.9847 -0.25
      vertex 8.98873 -12.5153 -0.95
      vertex 8.98873 -12.5153 -0.25
    endloop
  endfacet
  facet normal 1 0 0
    outer loop
      vertex 8.98873 -12.5153 -0.95
      vertex 8.98873 -13.9847 -0.25
      vertex 8.98873 -13.9847 -0.95
    endloop
  endfacet
  facet normal 0.309017 -0.951056 0
    outer loop
      vertex 8.98873 -12.5153 -0.95
      vertex 10.3863 -12.0612 -0.25
      vertex 8.98873 -12.5153 -0.25
    endloop
  endfacet
  facet normal 0.309017 -0.951056 0
    outer loop
      vertex 10.3863 -12.0612 -0.25
      vertex 8.98873 -12.5153 -0.95
      vertex 10.3863 -12.0612 -0.95
    endloop
  endfacet
  facet normal 0 0 1
    outer loop
      vertex 10.3863 -12.0612 -0.95
      vertex 10.3863 -14.4388 -0.95
      vertex 11.25 -13.25 -0.95
    endloop
  endfacet
  facet normal -0 0 1
    outer loop
      vertex 8.98873 -12.5153 -0.95
      vertex 10.3863 -14.4388 -0.95
      vertex 10.3863 -12.0612 -0.95
    endloop
  endfacet
  facet normal 0 0 1
    outer loop
      vertex 10.3863 -14.4388 -0.95
      vertex 8.98873 -12.5153 -0.95
      vertex 8.98873 -13.9847 -0.95
    endloop
  endfacet
  facet normal -0.809017 0.587786 0
    outer loop
      vertex 10.3863 -14.4388 -0.95
      vertex 11.25 -13.25 -0.25
      vertex 11.25 -13.25 -0.95
    endloop
  endfacet
  facet normal -0.809017 0.587786 0
    outer loop
      vertex 11.25 -13.25 -0.25
      vertex 10.3863 -14.4388 -0.95
      vertex 10.3863 -14.4388 -0.25
    endloop
  endfacet
  facet normal 0.309017 0.951056 -0
    outer loop
      vertex 10.3863 -14.4388 -0.95
      vertex 8.98873 -13.9847 -0.25
      vertex 10.3863 -14.4388 -0.25
    endloop
  endfacet
  facet normal 0.309017 0.951056 0
    outer loop
      vertex 8.98873 -13.9847 -0.25
      vertex 10.3863 -14.4388 -0.95
      vertex 8.98873 -13.9847 -0.95
    endloop
  endfacet
  facet normal -0.92388 -0.382683 0
    outer loop
      vertex 12.5 -13.25 -3.5
      vertex 11.7678 -11.4822 -1.25
      vertex 11.7678 -11.4822 -3.5
    endloop
  endfacet
  facet normal -0.92388 -0.382683 0
    outer loop
      vertex 11.7678 -11.4822 -1.25
      vertex 12.5 -13.25 -3.5
      vertex 12.5 -13.25 -1.25
    endloop
  endfacet
  facet normal 0.92388 0.382683 0
    outer loop
      vertex 8.23223 -15.0178 -1.25
      vertex 7.5 -13.25 -3.5
      vertex 7.5 -13.25 -1.25
    endloop
  endfacet
  facet normal 0.92388 0.382683 0
    outer loop
      vertex 7.5 -13.25 -3.5
      vertex 8.23223 -15.0178 -1.25
      vertex 8.23223 -15.0178 -3.5
    endloop
  endfacet
  facet normal 0.382683 -0.92388 0
    outer loop
      vertex 8.23223 -11.4822 -3.5
      vertex 10 -10.75 -1.25
      vertex 8.23223 -11.4822 -1.25
    endloop
  endfacet
  facet normal 0.382683 -0.92388 0
    outer loop
      vertex 10 -10.75 -1.25
      vertex 8.23223 -11.4822 -3.5
      vertex 10 -10.75 -3.5
    endloop
  endfacet
  facet normal -0.382683 -0.92388 0
    outer loop
      vertex 10 -10.75 -3.5
      vertex 11.7678 -11.4822 -1.25
      vertex 10 -10.75 -1.25
    endloop
  endfacet
  facet normal -0.382683 -0.92388 -0
    outer loop
      vertex 11.7678 -11.4822 -1.25
      vertex 10 -10.75 -3.5
      vertex 11.7678 -11.4822 -3.5
    endloop
  endfacet
  facet normal 0 0 -1
    outer loop
      vertex 11.7678 -15.0178 -1.25
      vertex 11.7678 -11.4822 -1.25
      vertex 12.5 -13.25 -1.25
    endloop
  endfacet
  facet normal 0 0 -1
    outer loop
      vertex 10 -15.75 -1.25
      vertex 11.7678 -11.4822 -1.25
      vertex 11.7678 -15.0178 -1.25
    endloop
  endfacet
  facet normal 0 0 -1
    outer loop
      vertex 10 -15.75 -1.25
      vertex 10 -10.75 -1.25
      vertex 11.7678 -11.4822 -1.25
    endloop
  endfacet
  facet normal 0 0 -1
    outer loop
      vertex 8.23223 -15.0178 -1.25
      vertex 10 -10.75 -1.25
      vertex 10 -15.75 -1.25
    endloop
  endfacet
  facet normal 0 0 -1
    outer loop
      vertex 8.23223 -15.0178 -1.25
      vertex 8.23223 -11.4822 -1.25
      vertex 10 -10.75 -1.25
    endloop
  endfacet
  facet normal 0 -0 -1
    outer loop
      vertex 8.23223 -11.4822 -1.25
      vertex 8.23223 -15.0178 -1.25
      vertex 7.5 -13.25 -1.25
    endloop
  endfacet
  facet normal 0.92388 -0.382683 0
    outer loop
      vertex 7.5 -13.25 -1.25
      vertex 8.23223 -11.4822 -3.5
      vertex 8.23223 -11.4822 -1.25
    endloop
  endfacet
  facet normal 0.92388 -0.382683 0
    outer loop
      vertex 8.23223 -11.4822 -3.5
      vertex 7.5 -13.25 -1.25
      vertex 7.5 -13.25 -3.5
    endloop
  endfacet
  facet normal -0.92388 0.382683 0
    outer loop
      vertex 11.7678 -15.0178 -3.5
      vertex 12.5 -13.25 -1.25
      vertex 12.5 -13.25 -3.5
    endloop
  endfacet
  facet normal -0.92388 0.382683 0
    outer loop
      vertex 12.5 -13.25 -1.25
      vertex 11.7678 -15.0178 -3.5
      vertex 11.7678 -15.0178 -1.25
    endloop
  endfacet
  facet normal -0.382683 0.92388 0
    outer loop
      vertex 11.7678 -15.0178 -3.5
      vertex 10 -15.75 -1.25
      vertex 11.7678 -15.0178 -1.25
    endloop
  endfacet
  facet normal -0.382683 0.92388 0
    outer loop
      vertex 10 -15.75 -1.25
      vertex 11.7678 -15.0178 -3.5
      vertex 10 -15.75 -3.5
    endloop
  endfacet
  facet normal 0.382683 0.92388 -0
    outer loop
      vertex 10 -15.75 -3.5
      vertex 8.23223 -15.0178 -1.25
      vertex 10 -15.75 -1.25
    endloop
  endfacet
  facet normal 0.382683 0.92388 0
    outer loop
      vertex 8.23223 -15.0178 -1.25
      vertex 10 -15.75 -3.5
      vertex 8.23223 -15.0178 -3.5
    endloop
  endfacet
  facet normal 0 -1 0
    outer loop
      vertex -16 13 7.492
      vertex -13.5 13 8.75
      vertex -16 13 8.75
    endloop
  endfacet
  facet normal 0 -1 -0
    outer loop
      vertex -13.5 13 8.75
      vertex -16 13 7.492
      vertex -13.5 13 7.492
    endloop
  endfacet
  facet normal 0 -1 0
    outer loop
      vertex 13.5 13 7.492
      vertex 16 13 8.75
      vertex 13.5 13 8.75
    endloop
  endfacet
  facet normal 0 -1 -0
    outer loop
      vertex 16 13 8.75
      vertex 13.5 13 7.492
      vertex 16 13 7.492
    endloop
  endfacet
  facet normal 0 1 -0
    outer loop
      vertex -13.5 9 7.492
      vertex -16 9 8.75
      vertex -13.5 9 8.75
    endloop
  endfacet
  facet normal 0 1 0
    outer loop
      vertex -16 9 8.75
      vertex -13.5 9 7.492
      vertex -16 9 7.492
    endloop
  endfacet
  facet normal 0 1 -0
    outer loop
      vertex 16 9 7.492
      vertex 13.5 9 8.75
      vertex 16 9 8.75
    endloop
  endfacet
  facet normal 0 1 0
    outer loop
      vertex 13.5 9 8.75
      vertex 16 9 7.492
      vertex 13.5 9 7.492
    endloop
  endfacet
  facet normal -0 0 1
    outer loop
      vertex -16 11.75 0.25
      vertex -13.5 10.25 0.25
      vertex -13.5 11.75 0.25
    endloop
  endfacet
  facet normal 0 0 1
    outer loop
      vertex -13.5 10.25 0.25
      vertex -16 11.75 0.25
      vertex -16 10.25 0.25
    endloop
  endfacet
  facet normal -0 0 1
    outer loop
      vertex 13.5 11.75 0.25
      vertex 16 10.25 0.25
      vertex 16 11.75 0.25
    endloop
  endfacet
  facet normal 0 0 1
    outer loop
      vertex 16 10.25 0.25
      vertex 13.5 11.75 0.25
      vertex 13.5 10.25 0.25
    endloop
  endfacet
  facet normal 0 1 -0
    outer loop
      vertex -13.5 10.25 0.25
      vertex -16 10.25 1.86879
      vertex -13.5 10.25 1.86879
    endloop
  endfacet
  facet normal 0 1 0
    outer loop
      vertex -16 10.25 1.86879
      vertex -13.5 10.25 0.25
      vertex -16 10.25 0.25
    endloop
  endfacet
  facet normal 0 1 -0
    outer loop
      vertex 16 10.25 0.25
      vertex 13.5 10.25 1.86879
      vertex 16 10.25 1.86879
    endloop
  endfacet
  facet normal 0 1 0
    outer loop
      vertex 13.5 10.25 1.86879
      vertex 16 10.25 0.25
      vertex 13.5 10.25 0.25
    endloop
  endfacet
  facet normal 0 -1 0
    outer loop
      vertex -16 11.75 0.25
      vertex -13.5 11.75 1.86879
      vertex -16 11.75 1.86879
    endloop
  endfacet
  facet normal 0 -1 -0
    outer loop
      vertex -13.5 11.75 1.86879
      vertex -16 11.75 0.25
      vertex -13.5 11.75 0.25
    endloop
  endfacet
  facet normal 0 -1 0
    outer loop
      vertex 13.5 11.75 0.25
      vertex 16 11.75 1.86879
      vertex 13.5 11.75 1.86879
    endloop
  endfacet
  facet normal 0 -1 -0
    outer loop
      vertex 16 11.75 1.86879
      vertex 13.5 11.75 0.25
      vertex 16 11.75 0.25
    endloop
  endfacet
  facet normal 0 -0.156435 0.987688
    outer loop
      vertex -16 11.7725 1.87236
      vertex -13.5 11.75 1.86879
      vertex -13.5 11.7725 1.87236
    endloop
  endfacet
  facet normal 0 -0.156435 0.987688
    outer loop
      vertex -13.5 11.75 1.86879
      vertex -16 11.7725 1.87236
      vertex -16 11.75 1.86879
    endloop
  endfacet
  facet normal 0 -0.156435 0.987688
    outer loop
      vertex 13.5 11.7725 1.87236
      vertex 16 11.75 1.86879
      vertex 16 11.7725 1.87236
    endloop
  endfacet
  facet normal 0 -0.156435 0.987688
    outer loop
      vertex 16 11.75 1.86879
      vertex 13.5 11.7725 1.87236
      vertex 13.5 11.75 1.86879
    endloop
  endfacet
  facet normal 0 0.987688 -0.156435
    outer loop
      vertex -16 8.5 6
      vertex -13.5 8.60976 6.69302
      vertex -13.5 8.5 6
    endloop
  endfacet
  facet normal -7.06494e-09 0.987688 -0.156435
    outer loop
      vertex -13.5 8.60976 6.69302
      vertex -16 8.5 6
      vertex -16 8.61876 6.74982
    endloop
  endfacet
  facet normal 0 0.987686 -0.156451
    outer loop
      vertex 13.5 8.5 6
      vertex 16 8.5036 6.02272
      vertex 16 8.5 6
    endloop
  endfacet
  facet normal -1.11912e-07 0.987688 -0.156439
    outer loop
      vertex 16 8.5036 6.02272
      vertex 13.5 8.5 6
      vertex 13.5 8.5126 6.07953
    endloop
  endfacet
  facet normal 0 -1 0
    outer loop
      vertex -16 13.5 4.25
      vertex -13.5 13.5 6
      vertex -16 13.5 6
    endloop
  endfacet
  facet normal 0 -1 -0
    outer loop
      vertex -13.5 13.5 6
      vertex -16 13.5 4.25
      vertex -13.5 13.5 4.25
    endloop
  endfacet
  facet normal 0 -1 0
    outer loop
      vertex 13.5 13.5 4.25
      vertex 16 13.5 6
      vertex 13.5 13.5 6
    endloop
  endfacet
  facet normal 0 -1 -0
    outer loop
      vertex 16 13.5 6
      vertex 13.5 13.5 4.25
      vertex 16 13.5 4.25
    endloop
  endfacet
  facet normal 0 -0.453991 0.891006
    outer loop
      vertex -16 12.4695 2.22746
      vertex -13.5 11.7725 1.87236
      vertex -13.5 12.4695 2.22746
    endloop
  endfacet
  facet normal 0 -0.453991 0.891006
    outer loop
      vertex -13.5 11.7725 1.87236
      vertex -16 12.4695 2.22746
      vertex -16 11.7725 1.87236
    endloop
  endfacet
  facet normal 0 -0.453991 0.891006
    outer loop
      vertex 13.5 12.4695 2.22746
      vertex 16 11.7725 1.87236
      vertex 16 12.4695 2.22746
    endloop
  endfacet
  facet normal 0 -0.453991 0.891006
    outer loop
      vertex 16 11.7725 1.87236
      vertex 13.5 12.4695 2.22746
      vertex 13.5 11.7725 1.87236
    endloop
  endfacet
  facet normal -0 0.453991 0.891006
    outer loop
      vertex -16 10.2275 1.87236
      vertex -13.5 9.53054 2.22746
      vertex -13.5 10.2275 1.87236
    endloop
  endfacet
  facet normal 0 0.453991 0.891006
    outer loop
      vertex -13.5 9.53054 2.22746
      vertex -16 10.2275 1.87236
      vertex -16 9.53054 2.22746
    endloop
  endfacet
  facet normal -0 0.453991 0.891006
    outer loop
      vertex 13.5 10.2275 1.87236
      vertex 16 9.53054 2.22746
      vertex 16 10.2275 1.87236
    endloop
  endfacet
  facet normal 0 0.453991 0.891006
    outer loop
      vertex 16 9.53054 2.22746
      vertex 13.5 10.2275 1.87236
      vertex 13.5 9.53054 2.22746
    endloop
  endfacet
  facet normal 0 0.707107 0.707107
    outer loop
      vertex -13.5 9.53054 2.22746
      vertex -16 8.97746 2.78054
      vertex -13.5 8.97746 2.78054
    endloop
  endfacet
  facet normal 0 0.707107 0.707107
    outer loop
      vertex -16 8.97746 2.78054
      vertex -13.5 9.53054 2.22746
      vertex -16 9.53054 2.22746
    endloop
  endfacet
  facet normal 0 0.707107 0.707107
    outer loop
      vertex 16 9.53054 2.22746
      vertex 13.5 8.97746 2.78054
      vertex 16 8.97746 2.78054
    endloop
  endfacet
  facet normal 0 0.707107 0.707107
    outer loop
      vertex 13.5 8.97746 2.78054
      vertex 16 9.53054 2.22746
      vertex 13.5 9.53054 2.22746
    endloop
  endfacet
  facet normal 0 -0.987688 0.156435
    outer loop
      vertex -16 13.3776 3.47746
      vertex -13.5 13.5 4.25
      vertex -16 13.5 4.25
    endloop
  endfacet
  facet normal 0 -0.987688 0.156435
    outer loop
      vertex -13.5 13.5 4.25
      vertex -16 13.3776 3.47746
      vertex -13.5 13.3776 3.47746
    endloop
  endfacet
  facet normal 0 -0.987688 0.156435
    outer loop
      vertex 13.5 13.3776 3.47746
      vertex 16 13.5 4.25
      vertex 13.5 13.5 4.25
    endloop
  endfacet
  facet normal 0 -0.987688 0.156435
    outer loop
      vertex 16 13.5 4.25
      vertex 13.5 13.3776 3.47746
      vertex 16 13.3776 3.47746
    endloop
  endfacet
  facet normal 0 -0.891006 0.453991
    outer loop
      vertex -16 13.0225 2.78054
      vertex -13.5 13.3776 3.47746
      vertex -16 13.3776 3.47746
    endloop
  endfacet
  facet normal 0 -0.891006 0.453991
    outer loop
      vertex -13.5 13.3776 3.47746
      vertex -16 13.0225 2.78054
      vertex -13.5 13.0225 2.78054
    endloop
  endfacet
  facet normal 0 -0.891006 0.453991
    outer loop
      vertex 13.5 13.0225 2.78054
      vertex 16 13.3776 3.47746
      vertex 13.5 13.3776 3.47746
    endloop
  endfacet
  facet normal 0 -0.891006 0.453991
    outer loop
      vertex 16 13.3776 3.47746
      vertex 13.5 13.0225 2.78054
      vertex 16 13.0225 2.78054
    endloop
  endfacet
  facet normal -0 0.156435 0.987688
    outer loop
      vertex -16 10.25 1.86879
      vertex -13.5 10.2275 1.87236
      vertex -13.5 10.25 1.86879
    endloop
  endfacet
  facet normal 0 0.156435 0.987688
    outer loop
      vertex -13.5 10.2275 1.87236
      vertex -16 10.25 1.86879
      vertex -16 10.2275 1.87236
    endloop
  endfacet
  facet normal -0 0.156435 0.987688
    outer loop
      vertex 13.5 10.25 1.86879
      vertex 16 10.2275 1.87236
      vertex 16 10.25 1.86879
    endloop
  endfacet
  facet normal 0 0.156435 0.987688
    outer loop
      vertex 16 10.2275 1.87236
      vertex 13.5 10.25 1.86879
      vertex 13.5 10.2275 1.87236
    endloop
  endfacet
  facet normal 0 0.987688 0.156435
    outer loop
      vertex -13.5 8.62236 3.47746
      vertex -16 8.5 4.25
      vertex -13.5 8.5 4.25
    endloop
  endfacet
  facet normal 0 0.987688 0.156435
    outer loop
      vertex -16 8.5 4.25
      vertex -13.5 8.62236 3.47746
      vertex -16 8.62236 3.47746
    endloop
  endfacet
  facet normal 0 0.987688 0.156435
    outer loop
      vertex 16 8.62236 3.47746
      vertex 13.5 8.5 4.25
      vertex 16 8.5 4.25
    endloop
  endfacet
  facet normal 0 0.987688 0.156435
    outer loop
      vertex 13.5 8.5 4.25
      vertex 16 8.62236 3.47746
      vertex 13.5 8.62236 3.47746
    endloop
  endfacet
  facet normal 0 -0.891006 -0.453991
    outer loop
      vertex -16 13.3776 6.77254
      vertex -13.5 13.0225 7.46946
      vertex -16 13.0225 7.46946
    endloop
  endfacet
  facet normal 0 -0.891006 -0.453991
    outer loop
      vertex -13.5 13.0225 7.46946
      vertex -16 13.3776 6.77254
      vertex -13.5 13.3776 6.77254
    endloop
  endfacet
  facet normal 0 -0.891006 -0.453991
    outer loop
      vertex 13.5 13.3776 6.77254
      vertex 16 13.0225 7.46946
      vertex 13.5 13.0225 7.46946
    endloop
  endfacet
  facet normal 0 -0.891006 -0.453991
    outer loop
      vertex 16 13.0225 7.46946
      vertex 13.5 13.3776 6.77254
      vertex 16 13.3776 6.77254
    endloop
  endfacet
  facet normal 0 -0.707107 0.707107
    outer loop
      vertex -16 12.4695 2.22746
      vertex -13.5 13.0225 2.78054
      vertex -16 13.0225 2.78054
    endloop
  endfacet
  facet normal 0 -0.707107 0.707107
    outer loop
      vertex -13.5 13.0225 2.78054
      vertex -16 12.4695 2.22746
      vertex -13.5 12.4695 2.22746
    endloop
  endfacet
  facet normal 0 -0.707107 0.707107
    outer loop
      vertex 13.5 12.4695 2.22746
      vertex 16 13.0225 2.78054
      vertex 13.5 13.0225 2.78054
    endloop
  endfacet
  facet normal 0 -0.707107 0.707107
    outer loop
      vertex 16 13.0225 2.78054
      vertex 13.5 12.4695 2.22746
      vertex 16 12.4695 2.22746
    endloop
  endfacet
  facet normal 0 0.707107 -0.707107
    outer loop
      vertex -13.5 8.97746 7.46946
      vertex -16 9 7.492
      vertex -13.5 9 7.492
    endloop
  endfacet
  facet normal 0 0.707107 -0.707107
    outer loop
      vertex -16 9 7.492
      vertex -13.5 8.97746 7.46946
      vertex -16 8.97746 7.46946
    endloop
  endfacet
  facet normal 0 0.707107 -0.707107
    outer loop
      vertex 16 8.97746 7.46946
      vertex 13.5 9 7.492
      vertex 16 9 7.492
    endloop
  endfacet
  facet normal 0 0.707107 -0.707107
    outer loop
      vertex 13.5 9 7.492
      vertex 16 8.97746 7.46946
      vertex 13.5 8.97746 7.46946
    endloop
  endfacet
  facet normal 0 1 -0
    outer loop
      vertex -13.5 8.5 4.25
      vertex -16 8.5 6
      vertex -13.5 8.5 6
    endloop
  endfacet
  facet normal 0 1 0
    outer loop
      vertex -16 8.5 6
      vertex -13.5 8.5 4.25
      vertex -16 8.5 4.25
    endloop
  endfacet
  facet normal 0 1 -0
    outer loop
      vertex 16 8.5 4.25
      vertex 13.5 8.5 6
      vertex 16 8.5 6
    endloop
  endfacet
  facet normal 0 1 0
    outer loop
      vertex 13.5 8.5 6
      vertex 16 8.5 4.25
      vertex 13.5 8.5 4.25
    endloop
  endfacet
  facet normal 0 0.891006 0.453991
    outer loop
      vertex -13.5 8.97746 2.78054
      vertex -16 8.62236 3.47746
      vertex -13.5 8.62236 3.47746
    endloop
  endfacet
  facet normal 0 0.891006 0.453991
    outer loop
      vertex -16 8.62236 3.47746
      vertex -13.5 8.97746 2.78054
      vertex -16 8.97746 2.78054
    endloop
  endfacet
  facet normal 0 0.891006 0.453991
    outer loop
      vertex 16 8.97746 2.78054
      vertex 13.5 8.62236 3.47746
      vertex 16 8.62236 3.47746
    endloop
  endfacet
  facet normal 0 0.891006 0.453991
    outer loop
      vertex 13.5 8.62236 3.47746
      vertex 16 8.97746 2.78054
      vertex 13.5 8.97746 2.78054
    endloop
  endfacet
  facet normal 0 -0.707107 -0.707107
    outer loop
      vertex -16 13.0225 7.46946
      vertex -13.5 13 7.492
      vertex -16 13 7.492
    endloop
  endfacet
  facet normal 0 -0.707107 -0.707107
    outer loop
      vertex -13.5 13 7.492
      vertex -16 13.0225 7.46946
      vertex -13.5 13.0225 7.46946
    endloop
  endfacet
  facet normal 0 -0.707107 -0.707107
    outer loop
      vertex 13.5 13.0225 7.46946
      vertex 16 13 7.492
      vertex 13.5 13 7.492
    endloop
  endfacet
  facet normal 0 -0.707107 -0.707107
    outer loop
      vertex 16 13 7.492
      vertex 13.5 13.0225 7.46946
      vertex 16 13.0225 7.46946
    endloop
  endfacet
  facet normal 0 -0.987686 -0.156451
    outer loop
      vertex -16 13.3812 6.74982
      vertex -13.5 13.3776 6.77254
      vertex -16 13.3776 6.77254
    endloop
  endfacet
  facet normal -1.11912e-07 -0.987688 -0.156439
    outer loop
      vertex -13.5 13.3776 6.77254
      vertex -16 13.3812 6.74982
      vertex -13.5 13.3902 6.69302
    endloop
  endfacet
  facet normal 0 -0.987688 -0.156435
    outer loop
      vertex 13.5 13.4874 6.07953
      vertex 16 13.3776 6.77254
      vertex 13.5 13.3776 6.77254
    endloop
  endfacet
  facet normal -1.15858e-08 -0.987688 -0.156435
    outer loop
      vertex 16 13.3776 6.77254
      vertex 13.5 13.4874 6.07953
      vertex 16 13.4964 6.02272
    endloop
  endfacet
  facet normal -7.06494e-09 -0.987688 -0.156435
    outer loop
      vertex -16 13.5 6
      vertex -13.5 13.3902 6.69302
      vertex -16 13.3812 6.74982
    endloop
  endfacet
  facet normal 0 -0.987688 -0.156435
    outer loop
      vertex -13.5 13.3902 6.69302
      vertex -16 13.5 6
      vertex -13.5 13.5 6
    endloop
  endfacet
  facet normal -1.11912e-07 -0.987688 -0.156439
    outer loop
      vertex 13.5 13.5 6
      vertex 16 13.4964 6.02272
      vertex 13.5 13.4874 6.07953
    endloop
  endfacet
  facet normal 0 -0.987686 -0.156451
    outer loop
      vertex 16 13.4964 6.02272
      vertex 13.5 13.5 6
      vertex 16 13.5 6
    endloop
  endfacet
  facet normal 0 0.891006 -0.453991
    outer loop
      vertex -13.5 8.62236 6.77254
      vertex -16 8.97746 7.46946
      vertex -13.5 8.97746 7.46946
    endloop
  endfacet
  facet normal 0 0.891006 -0.453991
    outer loop
      vertex -16 8.97746 7.46946
      vertex -13.5 8.62236 6.77254
      vertex -16 8.62236 6.77254
    endloop
  endfacet
  facet normal 0 0.891006 -0.453991
    outer loop
      vertex 16 8.62236 6.77254
      vertex 13.5 8.97746 7.46946
      vertex 16 8.97746 7.46946
    endloop
  endfacet
  facet normal 0 0.891006 -0.453991
    outer loop
      vertex 13.5 8.97746 7.46946
      vertex 16 8.62236 6.77254
      vertex 13.5 8.62236 6.77254
    endloop
  endfacet
  facet normal 0 0.987686 -0.156451
    outer loop
      vertex -13.5 8.62236 6.77254
      vertex -16 8.61876 6.74982
      vertex -16 8.62236 6.77254
    endloop
  endfacet
  facet normal -1.11912e-07 0.987688 -0.156439
    outer loop
      vertex -16 8.61876 6.74982
      vertex -13.5 8.62236 6.77254
      vertex -13.5 8.60976 6.69302
    endloop
  endfacet
  facet normal 0 0.987688 -0.156435
    outer loop
      vertex 16 8.62236 6.77254
      vertex 13.5 8.5126 6.07953
      vertex 13.5 8.62236 6.77254
    endloop
  endfacet
  facet normal -1.15858e-08 0.987688 -0.156435
    outer loop
      vertex 13.5 8.5126 6.07953
      vertex 16 8.62236 6.77254
      vertex 16 8.5036 6.02272
    endloop
  endfacet
  facet normal 1 0 0
    outer loop
      vertex -10.75 -3 3.5
      vertex -10.75 -8.04894 0.690983
      vertex -10.75 -3 -3.5
    endloop
  endfacet
  facet normal 1 0 0
    outer loop
      vertex -10.75 -3 3.5
      vertex -10.75 -8.41221 1.80902
      vertex -10.75 -8.04894 0.690983
    endloop
  endfacet
  facet normal 1 -0 0
    outer loop
      vertex -10.75 -10.25 3.5
      vertex -10.75 -8.41221 1.80902
      vertex -10.75 -3 3.5
    endloop
  endfacet
  facet normal 1 0 0
    outer loop
      vertex -10.75 -9.58778 1.80902
      vertex -10.75 -10.25 3.5
      vertex -10.75 -9.95106 0.690983
    endloop
  endfacet
  facet normal 1 0 0
    outer loop
      vertex -10.75 -8.41221 1.80902
      vertex -10.75 -10.25 3.5
      vertex -10.75 -9.58778 1.80902
    endloop
  endfacet
  facet normal 1 -0 0
    outer loop
      vertex -10.75 -9 0
      vertex -10.75 -3 -3.5
      vertex -10.75 -8.04894 0.690983
    endloop
  endfacet
  facet normal 1 0 0
    outer loop
      vertex -10.75 -10.25 -0.25
      vertex -10.75 -9.95106 0.690983
      vertex -10.75 -10.25 3.5
    endloop
  endfacet
  facet normal 1 0 0
    outer loop
      vertex -10.75 -10.25 -0.25
      vertex -10.75 -9 0
      vertex -10.75 -9.95106 0.690983
    endloop
  endfacet
  facet normal 1 0 0
    outer loop
      vertex -10.75 -10.5 -3.5
      vertex -10.75 -9 0
      vertex -10.75 -10.25 -0.25
    endloop
  endfacet
  facet normal 1 0 0
    outer loop
      vertex -10.75 -10.5 -3.5
      vertex -10.75 -10.25 -0.25
      vertex -10.75 -10.5 -0.25
    endloop
  endfacet
  facet normal 1 0 0
    outer loop
      vertex -10.75 -9 0
      vertex -10.75 -10.5 -3.5
      vertex -10.75 -3 -3.5
    endloop
  endfacet
  facet normal -1 0 0
    outer loop
      vertex 10.75 -3 -3.5
      vertex 10.75 -8.04894 0.690983
      vertex 10.75 -3 3.5
    endloop
  endfacet
  facet normal -1 0 0
    outer loop
      vertex 10.75 -3 -3.5
      vertex 10.75 -9 0
      vertex 10.75 -8.04894 0.690983
    endloop
  endfacet
  facet normal -1 -0 0
    outer loop
      vertex 10.75 -9 0
      vertex 10.75 -10.25 -0.25
      vertex 10.75 -9.95106 0.690983
    endloop
  endfacet
  facet normal -1 0 0
    outer loop
      vertex 10.75 -10.5 -3.5
      vertex 10.75 -9 0
      vertex 10.75 -3 -3.5
    endloop
  endfacet
  facet normal -1 0 0
    outer loop
      vertex 10.75 -9 0
      vertex 10.75 -10.5 -3.5
      vertex 10.75 -10.25 -0.25
    endloop
  endfacet
  facet normal -1 -0 0
    outer loop
      vertex 10.75 -10.25 -0.25
      vertex 10.75 -10.5 -3.5
      vertex 10.75 -10.5 -0.25
    endloop
  endfacet
  facet normal -1 0 0
    outer loop
      vertex 10.75 -8.41221 1.80902
      vertex 10.75 -3 3.5
      vertex 10.75 -8.04894 0.690983
    endloop
  endfacet
  facet normal -1 0 0
    outer loop
      vertex 10.75 -10.25 3.5
      vertex 10.75 -8.41221 1.80902
      vertex 10.75 -9.58778 1.80902
    endloop
  endfacet
  facet normal -1 0 0
    outer loop
      vertex 10.75 -8.41221 1.80902
      vertex 10.75 -10.25 3.5
      vertex 10.75 -3 3.5
    endloop
  endfacet
  facet normal -1 0 0
    outer loop
      vertex 10.75 -9.95106 0.690983
      vertex 10.75 -10.25 3.5
      vertex 10.75 -9.58778 1.80902
    endloop
  endfacet
  facet normal -1 0 0
    outer loop
      vertex 10.75 -10.25 3.5
      vertex 10.75 -9.95106 0.690983
      vertex 10.75 -10.25 -0.25
    endloop
  endfacet
  facet normal 0 1 -0
    outer loop
      vertex 10.75 -10.5 -3.5
      vertex -10.75 -10.5 -0.25
      vertex 10.75 -10.5 -0.25
    endloop
  endfacet
  facet normal 0 1 0
    outer loop
      vertex -10.75 -10.5 -0.25
      vertex 10.75 -10.5 -3.5
      vertex -10.75 -10.5 -3.5
    endloop
  endfacet
  facet normal -0 0 1
    outer loop
      vertex -12.5 -10.25 -0.25
      vertex -10.75 -10.5 -0.25
      vertex -10.75 -10.25 -0.25
    endloop
  endfacet
  facet normal 0 0 1
    outer loop
      vertex -12.5 -16 -0.25
      vertex -11.0113 -12.5153 -0.25
      vertex -12.5 -10.25 -0.25
    endloop
  endfacet
  facet normal 0 0 1
    outer loop
      vertex -10.75 -10.5 -0.25
      vertex -12.5 -10.25 -0.25
      vertex -11.0113 -12.5153 -0.25
    endloop
  endfacet
  facet normal 0 0 1
    outer loop
      vertex 12.5 -10.25 -0.25
      vertex 11.25 -13.25 -0.25
      vertex 12.5 -16 -0.25
    endloop
  endfacet
  facet normal 0 0 1
    outer loop
      vertex 10.75 -10.5 -0.25
      vertex 12.5 -10.25 -0.25
      vertex 10.75 -10.25 -0.25
    endloop
  endfacet
  facet normal 0 0 1
    outer loop
      vertex 10.3863 -12.0612 -0.25
      vertex 12.5 -10.25 -0.25
      vertex 10.75 -10.5 -0.25
    endloop
  endfacet
  facet normal 0 0 1
    outer loop
      vertex 12.5 -10.25 -0.25
      vertex 10.3863 -12.0612 -0.25
      vertex 11.25 -13.25 -0.25
    endloop
  endfacet
  facet normal 0 0 1
    outer loop
      vertex 10.75 -10.5 -0.25
      vertex 8.98873 -12.5153 -0.25
      vertex 10.3863 -12.0612 -0.25
    endloop
  endfacet
  facet normal 0 0 1
    outer loop
      vertex 8.98873 -12.5153 -0.25
      vertex -8.75 -13.25 -0.25
      vertex 8.98873 -13.9847 -0.25
    endloop
  endfacet
  facet normal -0 0 1
    outer loop
      vertex -10.75 -10.5 -0.25
      vertex 8.98873 -12.5153 -0.25
      vertex 10.75 -10.5 -0.25
    endloop
  endfacet
  facet normal 0 0 1
    outer loop
      vertex 8.98873 -12.5153 -0.25
      vertex -9.61373 -12.0612 -0.25
      vertex -8.75 -13.25 -0.25
    endloop
  endfacet
  facet normal 0 0 1
    outer loop
      vertex 8.98873 -12.5153 -0.25
      vertex -10.75 -10.5 -0.25
      vertex -9.61373 -12.0612 -0.25
    endloop
  endfacet
  facet normal 0 0 1
    outer loop
      vertex -9.61373 -12.0612 -0.25
      vertex -10.75 -10.5 -0.25
      vertex -11.0113 -12.5153 -0.25
    endloop
  endfacet
  facet normal -0 0 1
    outer loop
      vertex 10.3863 -14.4388 -0.25
      vertex 12.5 -16 -0.25
      vertex 11.25 -13.25 -0.25
    endloop
  endfacet
  facet normal 0 0 1
    outer loop
      vertex 8.98873 -13.9847 -0.25
      vertex 12.5 -16 -0.25
      vertex 10.3863 -14.4388 -0.25
    endloop
  endfacet
  facet normal 0 0 1
    outer loop
      vertex -9.61373 -14.4388 -0.25
      vertex 8.98873 -13.9847 -0.25
      vertex -8.75 -13.25 -0.25
    endloop
  endfacet
  facet normal 0 0 1
    outer loop
      vertex 8.98873 -13.9847 -0.25
      vertex -9.61373 -14.4388 -0.25
      vertex 12.5 -16 -0.25
    endloop
  endfacet
  facet normal 0 0 1
    outer loop
      vertex -9.61373 -14.4388 -0.25
      vertex -12.5 -16 -0.25
      vertex 12.5 -16 -0.25
    endloop
  endfacet
  facet normal 0 0 1
    outer loop
      vertex -11.0113 -13.9847 -0.25
      vertex -12.5 -16 -0.25
      vertex -9.61373 -14.4388 -0.25
    endloop
  endfacet
  facet normal 0 0 1
    outer loop
      vertex -11.0113 -12.5153 -0.25
      vertex -12.5 -16 -0.25
      vertex -11.0113 -13.9847 -0.25
    endloop
  endfacet
  facet normal 1 -0 0
    outer loop
      vertex -12.5 -16 3.5
      vertex -12.5 -10.25 -0.25
      vertex -12.5 -10.25 3.5
    endloop
  endfacet
  facet normal 1 0 0
    outer loop
      vertex -12.5 -10.25 -0.25
      vertex -12.5 -16 3.5
      vertex -12.5 -16 -0.25
    endloop
  endfacet
  facet normal -1 0 0
    outer loop
      vertex 12.5 -16 -0.25
      vertex 12.5 -10.25 3.5
      vertex 12.5 -10.25 -0.25
    endloop
  endfacet
  facet normal -1 -0 0
    outer loop
      vertex 12.5 -10.25 3.5
      vertex 12.5 -16 -0.25
      vertex 12.5 -16 3.5
    endloop
  endfacet
  facet normal 0 -1 0
    outer loop
      vertex -12.5 -10.25 -0.25
      vertex -10.75 -10.25 3.5
      vertex -12.5 -10.25 3.5
    endloop
  endfacet
  facet normal 0 -1 -0
    outer loop
      vertex -10.75 -10.25 3.5
      vertex -12.5 -10.25 -0.25
      vertex -10.75 -10.25 -0.25
    endloop
  endfacet
  facet normal 0 -1 0
    outer loop
      vertex 10.75 -10.25 -0.25
      vertex 12.5 -10.25 3.5
      vertex 10.75 -10.25 3.5
    endloop
  endfacet
  facet normal 0 -1 -0
    outer loop
      vertex 12.5 -10.25 3.5
      vertex 10.75 -10.25 -0.25
      vertex 12.5 -10.25 -0.25
    endloop
  endfacet
  facet normal 1 0 0
    outer loop
      vertex -13.5 9 8.75
      vertex -13.5 8.97746 7.46946
      vertex -13.5 9 7.492
    endloop
  endfacet
  facet normal 1 -0 0
    outer loop
      vertex -13.5 7.25 8.75
      vertex -13.5 8.97746 7.46946
      vertex -13.5 9 8.75
    endloop
  endfacet
  facet normal 1 0 0
    outer loop
      vertex -13.5 6 3.5
      vertex -13.5 8.5 6
      vertex -13.5 7.25 8.75
    endloop
  endfacet
  facet normal 1 0 0
    outer loop
      vertex -13.5 8.60976 6.69302
      vertex -13.5 7.25 8.75
      vertex -13.5 8.5 6
    endloop
  endfacet
  facet normal 1 0 0
    outer loop
      vertex -13.5 8.62236 6.77254
      vertex -13.5 7.25 8.75
      vertex -13.5 8.60976 6.69302
    endloop
  endfacet
  facet normal 1 0 0
    outer loop
      vertex -13.5 8.97746 7.46946
      vertex -13.5 7.25 8.75
      vertex -13.5 8.62236 6.77254
    endloop
  endfacet
  facet normal 1 0 0
    outer loop
      vertex -13.5 10.25 1.86879
      vertex -13.5 10.2275 1.87236
      vertex -13.5 10.25 0.25
    endloop
  endfacet
  facet normal 1 0 0
    outer loop
      vertex -13.5 14.75 8.75
      vertex -13.5 13.3902 6.69302
      vertex -13.5 13.5 6
    endloop
  endfacet
  facet normal 1 0 0
    outer loop
      vertex -13.5 14.75 8.75
      vertex -13.5 13.3776 6.77254
      vertex -13.5 13.3902 6.69302
    endloop
  endfacet
  facet normal 1 0 0
    outer loop
      vertex -13.5 14.75 8.75
      vertex -13.5 13.0225 7.46946
      vertex -13.5 13.3776 6.77254
    endloop
  endfacet
  facet normal 1 -0 0
    outer loop
      vertex -13.5 13 8.75
      vertex -13.5 13.0225 7.46946
      vertex -13.5 14.75 8.75
    endloop
  endfacet
  facet normal 1 0 0
    outer loop
      vertex -13.5 13.0225 7.46946
      vertex -13.5 13 8.75
      vertex -13.5 13 7.492
    endloop
  endfacet
  facet normal 1 -0 0
    outer loop
      vertex -13.5 13.5 6
      vertex -13.5 16 3.5
      vertex -13.5 14.75 8.75
    endloop
  endfacet
  facet normal 1 0 0
    outer loop
      vertex -13.5 16 3.5
      vertex -13.5 13.5 6
      vertex -13.5 13.5 4.25
    endloop
  endfacet
  facet normal 1 0 0
    outer loop
      vertex -13.5 13.3776 3.47746
      vertex -13.5 16 3.5
      vertex -13.5 13.5 4.25
    endloop
  endfacet
  facet normal 1 0 0
    outer loop
      vertex -13.5 13.0225 2.78054
      vertex -13.5 16 3.5
      vertex -13.5 13.3776 3.47746
    endloop
  endfacet
  facet normal 1 0 0
    outer loop
      vertex -13.5 11.75 0.25
      vertex -13.5 16 3.5
      vertex -13.5 13.0225 2.78054
    endloop
  endfacet
  facet normal 1 0 0
    outer loop
      vertex -13.5 11.75 0.25
      vertex -13.5 13.0225 2.78054
      vertex -13.5 12.4695 2.22746
    endloop
  endfacet
  facet normal 1 0 0
    outer loop
      vertex -13.5 11.75 0.25
      vertex -13.5 12.4695 2.22746
      vertex -13.5 11.7725 1.87236
    endloop
  endfacet
  facet normal 1 0 0
    outer loop
      vertex -13.5 11.75 0.25
      vertex -13.5 11.7725 1.87236
      vertex -13.5 11.75 1.86879
    endloop
  endfacet
  facet normal 1 0 0
    outer loop
      vertex -13.5 16 3.5
      vertex -13.5 11.75 0.25
      vertex -13.5 16 -3.5
    endloop
  endfacet
  facet normal 1 -0 0
    outer loop
      vertex -13.5 10.25 0.25
      vertex -13.5 16 -3.5
      vertex -13.5 11.75 0.25
    endloop
  endfacet
  facet normal 1 0 0
    outer loop
      vertex -13.5 9.53054 2.22746
      vertex -13.5 10.25 0.25
      vertex -13.5 10.2275 1.87236
    endloop
  endfacet
  facet normal 1 0 0
    outer loop
      vertex -13.5 8.97746 2.78054
      vertex -13.5 10.25 0.25
      vertex -13.5 9.53054 2.22746
    endloop
  endfacet
  facet normal 1 0 0
    outer loop
      vertex -13.5 6 3.5
      vertex -13.5 8.97746 2.78054
      vertex -13.5 8.62236 3.47746
    endloop
  endfacet
  facet normal 1 0 0
    outer loop
      vertex -13.5 8.5 6
      vertex -13.5 6 3.5
      vertex -13.5 8.5 4.25
    endloop
  endfacet
  facet normal 1 0 0
    outer loop
      vertex -13.5 8.5 4.25
      vertex -13.5 6 3.5
      vertex -13.5 8.62236 3.47746
    endloop
  endfacet
  facet normal 1 0 0
    outer loop
      vertex -13.5 8.97746 2.78054
      vertex -13.5 6 3.5
      vertex -13.5 10.25 0.25
    endloop
  endfacet
  facet normal 1 0 0
    outer loop
      vertex -13.5 -3 -3.5
      vertex -13.5 6 3.5
      vertex -13.5 -3 3.5
    endloop
  endfacet
  facet normal 1 0 0
    outer loop
      vertex -13.5 6 3.5
      vertex -13.5 -3 -3.5
      vertex -13.5 10.25 0.25
    endloop
  endfacet
  facet normal 1 0 0
    outer loop
      vertex -13.5 10.25 0.25
      vertex -13.5 -3 -3.5
      vertex -13.5 16 -3.5
    endloop
  endfacet
  facet normal -1 0 0
    outer loop
      vertex 13.5 11.75 0.25
      vertex 13.5 16 3.5
      vertex 13.5 16 -3.5
    endloop
  endfacet
  facet normal -1 0 0
    outer loop
      vertex 13.5 13.5 6
      vertex 13.5 16 3.5
      vertex 13.5 13.5 4.25
    endloop
  endfacet
  facet normal -1 -0 0
    outer loop
      vertex 13.5 16 3.5
      vertex 13.5 13.3776 3.47746
      vertex 13.5 13.5 4.25
    endloop
  endfacet
  facet normal -1 0 0
    outer loop
      vertex 13.5 16 3.5
      vertex 13.5 13.0225 2.78054
      vertex 13.5 13.3776 3.47746
    endloop
  endfacet
  facet normal -1 0 0
    outer loop
      vertex 13.5 16 3.5
      vertex 13.5 11.75 0.25
      vertex 13.5 13.0225 2.78054
    endloop
  endfacet
  facet normal -1 0 0
    outer loop
      vertex 13.5 13.0225 2.78054
      vertex 13.5 11.75 0.25
      vertex 13.5 12.4695 2.22746
    endloop
  endfacet
  facet normal -1 0 0
    outer loop
      vertex 13.5 12.4695 2.22746
      vertex 13.5 11.75 0.25
      vertex 13.5 11.7725 1.87236
    endloop
  endfacet
  facet normal -1 0 0
    outer loop
      vertex 13.5 16 -3.5
      vertex 13.5 10.25 0.25
      vertex 13.5 11.75 0.25
    endloop
  endfacet
  facet normal -1 0 0
    outer loop
      vertex 13.5 10.25 0.25
      vertex 13.5 10.2275 1.87236
      vertex 13.5 10.25 1.86879
    endloop
  endfacet
  facet normal -1 0 0
    outer loop
      vertex 13.5 10.25 0.25
      vertex 13.5 9.53054 2.22746
      vertex 13.5 10.2275 1.87236
    endloop
  endfacet
  facet normal -1 0 0
    outer loop
      vertex 13.5 10.25 0.25
      vertex 13.5 8.97746 2.78054
      vertex 13.5 9.53054 2.22746
    endloop
  endfacet
  facet normal -1 0 0
    outer loop
      vertex 13.5 6 3.5
      vertex 13.5 8.97746 2.78054
      vertex 13.5 10.25 0.25
    endloop
  endfacet
  facet normal -1 0 0
    outer loop
      vertex 13.5 6 3.5
      vertex 13.5 8.5 6
      vertex 13.5 8.5 4.25
    endloop
  endfacet
  facet normal -1 0 0
    outer loop
      vertex 13.5 6 3.5
      vertex 13.5 8.5 4.25
      vertex 13.5 8.62236 3.47746
    endloop
  endfacet
  facet normal -1 -0 0
    outer loop
      vertex 13.5 8.5 6
      vertex 13.5 6 3.5
      vertex 13.5 7.25 8.75
    endloop
  endfacet
  facet normal -1 0 0
    outer loop
      vertex 13.5 8.97746 2.78054
      vertex 13.5 6 3.5
      vertex 13.5 8.62236 3.47746
    endloop
  endfacet
  facet normal -1 0 0
    outer loop
      vertex 13.5 -3 -3.5
      vertex 13.5 10.25 0.25
      vertex 13.5 16 -3.5
    endloop
  endfacet
  facet normal -1 0 0
    outer loop
      vertex 13.5 -3 -3.5
      vertex 13.5 6 3.5
      vertex 13.5 10.25 0.25
    endloop
  endfacet
  facet normal -1 -0 0
    outer loop
      vertex 13.5 6 3.5
      vertex 13.5 -3 -3.5
      vertex 13.5 -3 3.5
    endloop
  endfacet
  facet normal -1 0 0
    outer loop
      vertex 13.5 16 3.5
      vertex 13.5 13.5 6
      vertex 13.5 14.75 8.75
    endloop
  endfacet
  facet normal -1 0 0
    outer loop
      vertex 13.5 13.4874 6.07953
      vertex 13.5 14.75 8.75
      vertex 13.5 13.5 6
    endloop
  endfacet
  facet normal -1 0 0
    outer loop
      vertex 13.5 13.3776 6.77254
      vertex 13.5 14.75 8.75
      vertex 13.5 13.4874 6.07953
    endloop
  endfacet
  facet normal -1 0 0
    outer loop
      vertex 13.5 13.0225 7.46946
      vertex 13.5 14.75 8.75
      vertex 13.5 13.3776 6.77254
    endloop
  endfacet
  facet normal -1 0 0
    outer loop
      vertex 13.5 13 8.75
      vertex 13.5 13.0225 7.46946
      vertex 13.5 13 7.492
    endloop
  endfacet
  facet normal -1 0 0
    outer loop
      vertex 13.5 13.0225 7.46946
      vertex 13.5 13 8.75
      vertex 13.5 14.75 8.75
    endloop
  endfacet
  facet normal -1 0 0
    outer loop
      vertex 13.5 11.7725 1.87236
      vertex 13.5 11.75 0.25
      vertex 13.5 11.75 1.86879
    endloop
  endfacet
  facet normal -1 0 0
    outer loop
      vertex 13.5 8.97746 7.46946
      vertex 13.5 9 8.75
      vertex 13.5 9 7.492
    endloop
  endfacet
  facet normal -1 0 0
    outer loop
      vertex 13.5 7.25 8.75
      vertex 13.5 8.97746 7.46946
      vertex 13.5 8.62236 6.77254
    endloop
  endfacet
  facet normal -1 0 0
    outer loop
      vertex 13.5 7.25 8.75
      vertex 13.5 8.5126 6.07953
      vertex 13.5 8.5 6
    endloop
  endfacet
  facet normal -1 0 0
    outer loop
      vertex 13.5 8.97746 7.46946
      vertex 13.5 7.25 8.75
      vertex 13.5 9 8.75
    endloop
  endfacet
  facet normal -1 0 0
    outer loop
      vertex 13.5 8.5126 6.07953
      vertex 13.5 7.25 8.75
      vertex 13.5 8.62236 6.77254
    endloop
  endfacet
  facet normal 0 1 -0
    outer loop
      vertex -10.75 -3 -3.5
      vertex -13.5 -3 3.5
      vertex -10.75 -3 3.5
    endloop
  endfacet
  facet normal 0 1 0
    outer loop
      vertex -13.5 -3 3.5
      vertex -10.75 -3 -3.5
      vertex -13.5 -3 -3.5
    endloop
  endfacet
  facet normal 0 1 -0
    outer loop
      vertex 13.5 -3 -3.5
      vertex 10.75 -3 3.5
      vertex 13.5 -3 3.5
    endloop
  endfacet
  facet normal 0 1 0
    outer loop
      vertex 10.75 -3 3.5
      vertex 13.5 -3 -3.5
      vertex 10.75 -3 -3.5
    endloop
  endfacet
  facet normal 0 -0.587785 0.809017
    outer loop
      vertex -16 -8.04894 0.690983
      vertex -10.75 -9 0
      vertex -10.75 -8.04894 0.690983
    endloop
  endfacet
  facet normal 0 -0.587785 0.809017
    outer loop
      vertex -10.75 -9 0
      vertex -16 -8.04894 0.690983
      vertex -16 -9 0
    endloop
  endfacet
  facet normal 0 -0.587785 0.809017
    outer loop
      vertex 10.75 -8.04894 0.690983
      vertex 16 -9 0
      vertex 16 -8.04894 0.690983
    endloop
  endfacet
  facet normal 0 -0.587785 0.809017
    outer loop
      vertex 16 -9 0
      vertex 10.75 -8.04894 0.690983
      vertex 10.75 -9 0
    endloop
  endfacet
  facet normal 0 0 -1
    outer loop
      vertex -16 -9.58778 1.80902
      vertex -10.75 -8.41221 1.80902
      vertex -10.75 -9.58778 1.80902
    endloop
  endfacet
  facet normal -0 0 -1
    outer loop
      vertex -10.75 -8.41221 1.80902
      vertex -16 -9.58778 1.80902
      vertex -16 -8.41221 1.80902
    endloop
  endfacet
  facet normal 0 0 -1
    outer loop
      vertex 10.75 -9.58778 1.80902
      vertex 16 -8.41221 1.80902
      vertex 16 -9.58778 1.80902
    endloop
  endfacet
  facet normal -0 0 -1
    outer loop
      vertex 16 -8.41221 1.80902
      vertex 10.75 -9.58778 1.80902
      vertex 10.75 -8.41221 1.80902
    endloop
  endfacet
  facet normal 0 -0.951056 -0.309017
    outer loop
      vertex -16 -8.04894 0.690983
      vertex -10.75 -8.41221 1.80902
      vertex -16 -8.41221 1.80902
    endloop
  endfacet
  facet normal 0 -0.951056 -0.309017
    outer loop
      vertex -10.75 -8.41221 1.80902
      vertex -16 -8.04894 0.690983
      vertex -10.75 -8.04894 0.690983
    endloop
  endfacet
  facet normal 0 -0.951056 -0.309017
    outer loop
      vertex 10.75 -8.04894 0.690983
      vertex 16 -8.41221 1.80902
      vertex 10.75 -8.41221 1.80902
    endloop
  endfacet
  facet normal 0 -0.951056 -0.309017
    outer loop
      vertex 16 -8.41221 1.80902
      vertex 10.75 -8.04894 0.690983
      vertex 16 -8.04894 0.690983
    endloop
  endfacet
  facet normal -0 0.587785 0.809017
    outer loop
      vertex -16 -9 0
      vertex -10.75 -9.95106 0.690983
      vertex -10.75 -9 0
    endloop
  endfacet
  facet normal 0 0.587785 0.809017
    outer loop
      vertex -10.75 -9.95106 0.690983
      vertex -16 -9 0
      vertex -16 -9.95106 0.690983
    endloop
  endfacet
  facet normal -0 0.587785 0.809017
    outer loop
      vertex 10.75 -9 0
      vertex 16 -9.95106 0.690983
      vertex 16 -9 0
    endloop
  endfacet
  facet normal 0 0.587785 0.809017
    outer loop
      vertex 16 -9.95106 0.690983
      vertex 10.75 -9 0
      vertex 10.75 -9.95106 0.690983
    endloop
  endfacet
  facet normal 0 0.951056 -0.309017
    outer loop
      vertex -10.75 -9.95106 0.690983
      vertex -16 -9.58778 1.80902
      vertex -10.75 -9.58778 1.80902
    endloop
  endfacet
  facet normal 0 0.951056 -0.309017
    outer loop
      vertex -16 -9.58778 1.80902
      vertex -10.75 -9.95106 0.690983
      vertex -16 -9.95106 0.690983
    endloop
  endfacet
  facet normal 0 0.951056 -0.309017
    outer loop
      vertex 16 -9.95106 0.690983
      vertex 10.75 -9.58778 1.80902
      vertex 16 -9.58778 1.80902
    endloop
  endfacet
  facet normal 0 0.951056 -0.309017
    outer loop
      vertex 10.75 -9.58778 1.80902
      vertex 16 -9.95106 0.690983
      vertex 10.75 -9.95106 0.690983
    endloop
  endfacet
endsolid OpenSCAD_Model
