solid OpenSCAD_Model
  facet normal 0 -0.587785 0.809017
    outer loop
      vertex -16 0.951056 0.690983
      vertex -12.5 0 0
      vertex -12.5 0.951056 0.690983
    endloop
  endfacet
  facet normal 0 -0.587785 0.809017
    outer loop
      vertex -12.5 0 0
      vertex -16 0.951056 0.690983
      vertex -16 0 0
    endloop
  endfacet
  facet normal 0 -0.587785 0.809017
    outer loop
      vertex 12.5 0.951056 0.690983
      vertex 16 0 0
      vertex 16 0.951056 0.690983
    endloop
  endfacet
  facet normal 0 -0.587785 0.809017
    outer loop
      vertex 16 0 0
      vertex 12.5 0.951056 0.690983
      vertex 12.5 0 0
    endloop
  endfacet
  facet normal 0 0 -1
    outer loop
      vertex -16 -0.587785 1.80902
      vertex -12.5 0.587785 1.80902
      vertex -12.5 -0.587785 1.80902
    endloop
  endfacet
  facet normal -0 0 -1
    outer loop
      vertex -12.5 0.587785 1.80902
      vertex -16 -0.587785 1.80902
      vertex -16 0.587785 1.80902
    endloop
  endfacet
  facet normal 0 0 -1
    outer loop
      vertex 12.5 -0.587785 1.80902
      vertex 16 0.587785 1.80902
      vertex 16 -0.587785 1.80902
    endloop
  endfacet
  facet normal -0 0 -1
    outer loop
      vertex 16 0.587785 1.80902
      vertex 12.5 -0.587785 1.80902
      vertex 12.5 0.587785 1.80902
    endloop
  endfacet
  facet normal 0 -0.951056 -0.309017
    outer loop
      vertex -16 0.951056 0.690983
      vertex -12.5 0.587785 1.80902
      vertex -16 0.587785 1.80902
    endloop
  endfacet
  facet normal 0 -0.951056 -0.309017
    outer loop
      vertex -12.5 0.587785 1.80902
      vertex -16 0.951056 0.690983
      vertex -12.5 0.951056 0.690983
    endloop
  endfacet
  facet normal 0 -0.951056 -0.309017
    outer loop
      vertex 12.5 0.951056 0.690983
      vertex 16 0.587785 1.80902
      vertex 12.5 0.587785 1.80902
    endloop
  endfacet
  facet normal 0 -0.951056 -0.309017
    outer loop
      vertex 16 0.587785 1.80902
      vertex 12.5 0.951056 0.690983
      vertex 16 0.951056 0.690983
    endloop
  endfacet
  facet normal 0 0.951056 -0.309017
    outer loop
      vertex -12.5 -0.951056 0.690983
      vertex -16 -0.587785 1.80902
      vertex -12.5 -0.587785 1.80902
    endloop
  endfacet
  facet normal 0 0.951056 -0.309017
    outer loop
      vertex -16 -0.587785 1.80902
      vertex -12.5 -0.951056 0.690983
      vertex -16 -0.951056 0.690983
    endloop
  endfacet
  facet normal 0 0.951056 -0.309017
    outer loop
      vertex 16 -0.951056 0.690983
      vertex 12.5 -0.587785 1.80902
      vertex 16 -0.587785 1.80902
    endloop
  endfacet
  facet normal 0 0.951056 -0.309017
    outer loop
      vertex 12.5 -0.587785 1.80902
      vertex 16 -0.951056 0.690983
      vertex 12.5 -0.951056 0.690983
    endloop
  endfacet
  facet normal -0 0.587785 0.809017
    outer loop
      vertex -16 0 0
      vertex -12.5 -0.951056 0.690983
      vertex -12.5 0 0
    endloop
  endfacet
  facet normal 0 0.587785 0.809017
    outer loop
      vertex -12.5 -0.951056 0.690983
      vertex -16 0 0
      vertex -16 -0.951056 0.690983
    endloop
  endfacet
  facet normal -0 0.587785 0.809017
    outer loop
      vertex 12.5 0 0
      vertex 16 -0.951056 0.690983
      vertex 16 0 0
    endloop
  endfacet
  facet normal 0 0.587785 0.809017
    outer loop
      vertex 16 -0.951056 0.690983
      vertex 12.5 0 0
      vertex 12.5 -0.951056 0.690983
    endloop
  endfacet
  facet normal 0 -0.587785 0.809017
    outer loop
      vertex -16 4.95106 0.690983
      vertex -12.5 4 0
      vertex -12.5 4.95106 0.690983
    endloop
  endfacet
  facet normal 0 -0.587785 0.809017
    outer loop
      vertex -12.5 4 0
      vertex -16 4.95106 0.690983
      vertex -16 4 0
    endloop
  endfacet
  facet normal 0 -0.587785 0.809017
    outer loop
      vertex 12.5 4.95106 0.690983
      vertex 16 4 0
      vertex 16 4.95106 0.690983
    endloop
  endfacet
  facet normal 0 -0.587785 0.809017
    outer loop
      vertex 16 4 0
      vertex 12.5 4.95106 0.690983
      vertex 12.5 4 0
    endloop
  endfacet
  facet normal 0 0 -1
    outer loop
      vertex -16 3.41221 1.80902
      vertex -12.5 4.58778 1.80902
      vertex -12.5 3.41221 1.80902
    endloop
  endfacet
  facet normal -0 0 -1
    outer loop
      vertex -12.5 4.58778 1.80902
      vertex -16 3.41221 1.80902
      vertex -16 4.58778 1.80902
    endloop
  endfacet
  facet normal 0 0 -1
    outer loop
      vertex 12.5 3.41221 1.80902
      vertex 16 4.58778 1.80902
      vertex 16 3.41221 1.80902
    endloop
  endfacet
  facet normal -0 0 -1
    outer loop
      vertex 16 4.58778 1.80902
      vertex 12.5 3.41221 1.80902
      vertex 12.5 4.58778 1.80902
    endloop
  endfacet
  facet normal 0 -0.951056 -0.309017
    outer loop
      vertex -16 4.95106 0.690983
      vertex -12.5 4.58778 1.80902
      vertex -16 4.58778 1.80902
    endloop
  endfacet
  facet normal 0 -0.951056 -0.309017
    outer loop
      vertex -12.5 4.58778 1.80902
      vertex -16 4.95106 0.690983
      vertex -12.5 4.95106 0.690983
    endloop
  endfacet
  facet normal 0 -0.951056 -0.309017
    outer loop
      vertex 12.5 4.95106 0.690983
      vertex 16 4.58778 1.80902
      vertex 12.5 4.58778 1.80902
    endloop
  endfacet
  facet normal 0 -0.951056 -0.309017
    outer loop
      vertex 16 4.58778 1.80902
      vertex 12.5 4.95106 0.690983
      vertex 16 4.95106 0.690983
    endloop
  endfacet
  facet normal 0 0.951056 -0.309017
    outer loop
      vertex -12.5 3.04894 0.690983
      vertex -16 3.41221 1.80902
      vertex -12.5 3.41221 1.80902
    endloop
  endfacet
  facet normal 0 0.951056 -0.309017
    outer loop
      vertex -16 3.41221 1.80902
      vertex -12.5 3.04894 0.690983
      vertex -16 3.04894 0.690983
    endloop
  endfacet
  facet normal 0 0.951056 -0.309017
    outer loop
      vertex 16 3.04894 0.690983
      vertex 12.5 3.41221 1.80902
      vertex 16 3.41221 1.80902
    endloop
  endfacet
  facet normal 0 0.951056 -0.309017
    outer loop
      vertex 12.5 3.41221 1.80902
      vertex 16 3.04894 0.690983
      vertex 12.5 3.04894 0.690983
    endloop
  endfacet
  facet normal -0 0.587785 0.809017
    outer loop
      vertex -16 4 0
      vertex -12.5 3.04894 0.690983
      vertex -12.5 4 0
    endloop
  endfacet
  facet normal 0 0.587785 0.809017
    outer loop
      vertex -12.5 3.04894 0.690983
      vertex -16 4 0
      vertex -16 3.04894 0.690983
    endloop
  endfacet
  facet normal -0 0.587785 0.809017
    outer loop
      vertex 12.5 4 0
      vertex 16 3.04894 0.690983
      vertex 16 4 0
    endloop
  endfacet
  facet normal 0 0.587785 0.809017
    outer loop
      vertex 16 3.04894 0.690983
      vertex 12.5 4 0
      vertex 12.5 3.04894 0.690983
    endloop
  endfacet
  facet normal -0.809017 -0.587785 0
    outer loop
      vertex -8.75 -3.25 -0.95
      vertex -9.61373 -2.06118 -0.25
      vertex -9.61373 -2.06118 -0.95
    endloop
  endfacet
  facet normal -0.809017 -0.587785 0
    outer loop
      vertex -9.61373 -2.06118 -0.25
      vertex -8.75 -3.25 -0.95
      vertex -8.75 -3.25 -0.25
    endloop
  endfacet
  facet normal 1 -0 0
    outer loop
      vertex -11.0113 -3.98473 -0.25
      vertex -11.0113 -2.51527 -0.95
      vertex -11.0113 -2.51527 -0.25
    endloop
  endfacet
  facet normal 1 0 0
    outer loop
      vertex -11.0113 -2.51527 -0.95
      vertex -11.0113 -3.98473 -0.25
      vertex -11.0113 -3.98473 -0.95
    endloop
  endfacet
  facet normal 0.309017 -0.951056 0
    outer loop
      vertex -11.0113 -2.51527 -0.95
      vertex -9.61373 -2.06118 -0.25
      vertex -11.0113 -2.51527 -0.25
    endloop
  endfacet
  facet normal 0.309017 -0.951056 0
    outer loop
      vertex -9.61373 -2.06118 -0.25
      vertex -11.0113 -2.51527 -0.95
      vertex -9.61373 -2.06118 -0.95
    endloop
  endfacet
  facet normal 0 0 1
    outer loop
      vertex -9.61373 -2.06118 -0.95
      vertex -9.61373 -4.43882 -0.95
      vertex -8.75 -3.25 -0.95
    endloop
  endfacet
  facet normal -0 0 1
    outer loop
      vertex -11.0113 -2.51527 -0.95
      vertex -9.61373 -4.43882 -0.95
      vertex -9.61373 -2.06118 -0.95
    endloop
  endfacet
  facet normal 0 0 1
    outer loop
      vertex -9.61373 -4.43882 -0.95
      vertex -11.0113 -2.51527 -0.95
      vertex -11.0113 -3.98473 -0.95
    endloop
  endfacet
  facet normal -0.809017 0.587785 0
    outer loop
      vertex -9.61373 -4.43882 -0.95
      vertex -8.75 -3.25 -0.25
      vertex -8.75 -3.25 -0.95
    endloop
  endfacet
  facet normal -0.809017 0.587785 0
    outer loop
      vertex -8.75 -3.25 -0.25
      vertex -9.61373 -4.43882 -0.95
      vertex -9.61373 -4.43882 -0.25
    endloop
  endfacet
  facet normal 0.309017 0.951056 -0
    outer loop
      vertex -9.61373 -4.43882 -0.95
      vertex -11.0113 -3.98473 -0.25
      vertex -9.61373 -4.43882 -0.25
    endloop
  endfacet
  facet normal 0.309017 0.951056 0
    outer loop
      vertex -11.0113 -3.98473 -0.25
      vertex -9.61373 -4.43882 -0.95
      vertex -11.0113 -3.98473 -0.95
    endloop
  endfacet
  facet normal -0.92388 -0.382683 0
    outer loop
      vertex -7.5 -3.25 -3.5
      vertex -8.23223 -1.48223 -1.25
      vertex -8.23223 -1.48223 -3.5
    endloop
  endfacet
  facet normal -0.92388 -0.382683 0
    outer loop
      vertex -8.23223 -1.48223 -1.25
      vertex -7.5 -3.25 -3.5
      vertex -7.5 -3.25 -1.25
    endloop
  endfacet
  facet normal 0.92388 -0.382683 0
    outer loop
      vertex -12.5 -3.25 -1.25
      vertex -11.7678 -1.48223 -3.5
      vertex -11.7678 -1.48223 -1.25
    endloop
  endfacet
  facet normal 0.92388 -0.382683 0
    outer loop
      vertex -11.7678 -1.48223 -3.5
      vertex -12.5 -3.25 -1.25
      vertex -12.5 -3.25 -3.5
    endloop
  endfacet
  facet normal 0.382683 -0.92388 0
    outer loop
      vertex -11.7678 -1.48223 -3.5
      vertex -10 -0.75 -1.25
      vertex -11.7678 -1.48223 -1.25
    endloop
  endfacet
  facet normal 0.382683 -0.92388 0
    outer loop
      vertex -10 -0.75 -1.25
      vertex -11.7678 -1.48223 -3.5
      vertex -10 -0.75 -3.5
    endloop
  endfacet
  facet normal -0.382683 -0.92388 0
    outer loop
      vertex -10 -0.75 -3.5
      vertex -8.23223 -1.48223 -1.25
      vertex -10 -0.75 -1.25
    endloop
  endfacet
  facet normal -0.382683 -0.92388 -0
    outer loop
      vertex -8.23223 -1.48223 -1.25
      vertex -10 -0.75 -3.5
      vertex -8.23223 -1.48223 -3.5
    endloop
  endfacet
  facet normal 0 0 -1
    outer loop
      vertex -8.23223 -5.01777 -1.25
      vertex -8.23223 -1.48223 -1.25
      vertex -7.5 -3.25 -1.25
    endloop
  endfacet
  facet normal 0 0 -1
    outer loop
      vertex -10 -5.75 -1.25
      vertex -8.23223 -1.48223 -1.25
      vertex -8.23223 -5.01777 -1.25
    endloop
  endfacet
  facet normal 0 0 -1
    outer loop
      vertex -10 -5.75 -1.25
      vertex -10 -0.75 -1.25
      vertex -8.23223 -1.48223 -1.25
    endloop
  endfacet
  facet normal 0 0 -1
    outer loop
      vertex -11.7678 -5.01777 -1.25
      vertex -10 -0.75 -1.25
      vertex -10 -5.75 -1.25
    endloop
  endfacet
  facet normal 0 0 -1
    outer loop
      vertex -11.7678 -5.01777 -1.25
      vertex -11.7678 -1.48223 -1.25
      vertex -10 -0.75 -1.25
    endloop
  endfacet
  facet normal 0 -0 -1
    outer loop
      vertex -11.7678 -1.48223 -1.25
      vertex -11.7678 -5.01777 -1.25
      vertex -12.5 -3.25 -1.25
    endloop
  endfacet
  facet normal -0.92388 0.382683 0
    outer loop
      vertex -8.23223 -5.01777 -3.5
      vertex -7.5 -3.25 -1.25
      vertex -7.5 -3.25 -3.5
    endloop
  endfacet
  facet normal -0.92388 0.382683 0
    outer loop
      vertex -7.5 -3.25 -1.25
      vertex -8.23223 -5.01777 -3.5
      vertex -8.23223 -5.01777 -1.25
    endloop
  endfacet
  facet normal -0.382683 0.92388 0
    outer loop
      vertex -8.23223 -5.01777 -3.5
      vertex -10 -5.75 -1.25
      vertex -8.23223 -5.01777 -1.25
    endloop
  endfacet
  facet normal -0.382683 0.92388 0
    outer loop
      vertex -10 -5.75 -1.25
      vertex -8.23223 -5.01777 -3.5
      vertex -10 -5.75 -3.5
    endloop
  endfacet
  facet normal 0.92388 0.382683 0
    outer loop
      vertex -11.7678 -5.01777 -1.25
      vertex -12.5 -3.25 -3.5
      vertex -12.5 -3.25 -1.25
    endloop
  endfacet
  facet normal 0.92388 0.382683 0
    outer loop
      vertex -12.5 -3.25 -3.5
      vertex -11.7678 -5.01777 -1.25
      vertex -11.7678 -5.01777 -3.5
    endloop
  endfacet
  facet normal 0.382683 0.92388 -0
    outer loop
      vertex -10 -5.75 -3.5
      vertex -11.7678 -5.01777 -1.25
      vertex -10 -5.75 -1.25
    endloop
  endfacet
  facet normal 0.382683 0.92388 0
    outer loop
      vertex -11.7678 -5.01777 -1.25
      vertex -10 -5.75 -3.5
      vertex -11.7678 -5.01777 -3.5
    endloop
  endfacet
  facet normal -0.809017 -0.587786 0
    outer loop
      vertex 11.25 -3.25 -0.95
      vertex 10.3863 -2.06118 -0.25
      vertex 10.3863 -2.06118 -0.95
    endloop
  endfacet
  facet normal -0.809017 -0.587786 0
    outer loop
      vertex 10.3863 -2.06118 -0.25
      vertex 11.25 -3.25 -0.95
      vertex 11.25 -3.25 -0.25
    endloop
  endfacet
  facet normal 1 -0 0
    outer loop
      vertex 8.98873 -3.98473 -0.25
      vertex 8.98873 -2.51527 -0.95
      vertex 8.98873 -2.51527 -0.25
    endloop
  endfacet
  facet normal 1 0 0
    outer loop
      vertex 8.98873 -2.51527 -0.95
      vertex 8.98873 -3.98473 -0.25
      vertex 8.98873 -3.98473 -0.95
    endloop
  endfacet
  facet normal 0.309017 -0.951056 0
    outer loop
      vertex 8.98873 -2.51527 -0.95
      vertex 10.3863 -2.06118 -0.25
      vertex 8.98873 -2.51527 -0.25
    endloop
  endfacet
  facet normal 0.309017 -0.951056 0
    outer loop
      vertex 10.3863 -2.06118 -0.25
      vertex 8.98873 -2.51527 -0.95
      vertex 10.3863 -2.06118 -0.95
    endloop
  endfacet
  facet normal 0 0 1
    outer loop
      vertex 10.3863 -2.06118 -0.95
      vertex 10.3863 -4.43882 -0.95
      vertex 11.25 -3.25 -0.95
    endloop
  endfacet
  facet normal -0 0 1
    outer loop
      vertex 8.98873 -2.51527 -0.95
      vertex 10.3863 -4.43882 -0.95
      vertex 10.3863 -2.06118 -0.95
    endloop
  endfacet
  facet normal 0 0 1
    outer loop
      vertex 10.3863 -4.43882 -0.95
      vertex 8.98873 -2.51527 -0.95
      vertex 8.98873 -3.98473 -0.95
    endloop
  endfacet
  facet normal -0.809017 0.587786 0
    outer loop
      vertex 10.3863 -4.43882 -0.95
      vertex 11.25 -3.25 -0.25
      vertex 11.25 -3.25 -0.95
    endloop
  endfacet
  facet normal -0.809017 0.587786 0
    outer loop
      vertex 11.25 -3.25 -0.25
      vertex 10.3863 -4.43882 -0.95
      vertex 10.3863 -4.43882 -0.25
    endloop
  endfacet
  facet normal 0.309017 0.951056 -0
    outer loop
      vertex 10.3863 -4.43882 -0.95
      vertex 8.98873 -3.98473 -0.25
      vertex 10.3863 -4.43882 -0.25
    endloop
  endfacet
  facet normal 0.309017 0.951056 0
    outer loop
      vertex 8.98873 -3.98473 -0.25
      vertex 10.3863 -4.43882 -0.95
      vertex 8.98873 -3.98473 -0.95
    endloop
  endfacet
  facet normal -0.92388 -0.382683 0
    outer loop
      vertex 12.5 -3.25 -3.5
      vertex 11.7678 -1.48223 -1.25
      vertex 11.7678 -1.48223 -3.5
    endloop
  endfacet
  facet normal -0.92388 -0.382683 0
    outer loop
      vertex 11.7678 -1.48223 -1.25
      vertex 12.5 -3.25 -3.5
      vertex 12.5 -3.25 -1.25
    endloop
  endfacet
  facet normal 0.382683 0.92388 -0
    outer loop
      vertex 10 -5.75 -3.5
      vertex 8.23223 -5.01777 -1.25
      vertex 10 -5.75 -1.25
    endloop
  endfacet
  facet normal 0.382683 0.92388 0
    outer loop
      vertex 8.23223 -5.01777 -1.25
      vertex 10 -5.75 -3.5
      vertex 8.23223 -5.01777 -3.5
    endloop
  endfacet
  facet normal 0.382683 -0.92388 0
    outer loop
      vertex 8.23223 -1.48223 -3.5
      vertex 10 -0.75 -1.25
      vertex 8.23223 -1.48223 -1.25
    endloop
  endfacet
  facet normal 0.382683 -0.92388 0
    outer loop
      vertex 10 -0.75 -1.25
      vertex 8.23223 -1.48223 -3.5
      vertex 10 -0.75 -3.5
    endloop
  endfacet
  facet normal -0.382683 -0.92388 0
    outer loop
      vertex 10 -0.75 -3.5
      vertex 11.7678 -1.48223 -1.25
      vertex 10 -0.75 -1.25
    endloop
  endfacet
  facet normal -0.382683 -0.92388 -0
    outer loop
      vertex 11.7678 -1.48223 -1.25
      vertex 10 -0.75 -3.5
      vertex 11.7678 -1.48223 -3.5
    endloop
  endfacet
  facet normal 0 0 -1
    outer loop
      vertex 11.7678 -5.01777 -1.25
      vertex 11.7678 -1.48223 -1.25
      vertex 12.5 -3.25 -1.25
    endloop
  endfacet
  facet normal 0 0 -1
    outer loop
      vertex 10 -5.75 -1.25
      vertex 11.7678 -1.48223 -1.25
      vertex 11.7678 -5.01777 -1.25
    endloop
  endfacet
  facet normal 0 0 -1
    outer loop
      vertex 10 -5.75 -1.25
      vertex 10 -0.75 -1.25
      vertex 11.7678 -1.48223 -1.25
    endloop
  endfacet
  facet normal 0 0 -1
    outer loop
      vertex 8.23223 -5.01777 -1.25
      vertex 10 -0.75 -1.25
      vertex 10 -5.75 -1.25
    endloop
  endfacet
  facet normal 0 0 -1
    outer loop
      vertex 8.23223 -5.01777 -1.25
      vertex 8.23223 -1.48223 -1.25
      vertex 10 -0.75 -1.25
    endloop
  endfacet
  facet normal 0 -0 -1
    outer loop
      vertex 8.23223 -1.48223 -1.25
      vertex 8.23223 -5.01777 -1.25
      vertex 7.5 -3.25 -1.25
    endloop
  endfacet
  facet normal 0.92388 -0.382683 0
    outer loop
      vertex 7.5 -3.25 -1.25
      vertex 8.23223 -1.48223 -3.5
      vertex 8.23223 -1.48223 -1.25
    endloop
  endfacet
  facet normal 0.92388 -0.382683 0
    outer loop
      vertex 8.23223 -1.48223 -3.5
      vertex 7.5 -3.25 -1.25
      vertex 7.5 -3.25 -3.5
    endloop
  endfacet
  facet normal 0.92388 0.382683 0
    outer loop
      vertex 8.23223 -5.01777 -1.25
      vertex 7.5 -3.25 -3.5
      vertex 7.5 -3.25 -1.25
    endloop
  endfacet
  facet normal 0.92388 0.382683 0
    outer loop
      vertex 7.5 -3.25 -3.5
      vertex 8.23223 -5.01777 -1.25
      vertex 8.23223 -5.01777 -3.5
    endloop
  endfacet
  facet normal -0.382683 0.92388 0
    outer loop
      vertex 11.7678 -5.01777 -3.5
      vertex 10 -5.75 -1.25
      vertex 11.7678 -5.01777 -1.25
    endloop
  endfacet
  facet normal -0.382683 0.92388 0
    outer loop
      vertex 10 -5.75 -1.25
      vertex 11.7678 -5.01777 -3.5
      vertex 10 -5.75 -3.5
    endloop
  endfacet
  facet normal -0.92388 0.382683 0
    outer loop
      vertex 11.7678 -5.01777 -3.5
      vertex 12.5 -3.25 -1.25
      vertex 12.5 -3.25 -3.5
    endloop
  endfacet
  facet normal -0.92388 0.382683 0
    outer loop
      vertex 12.5 -3.25 -1.25
      vertex 11.7678 -5.01777 -3.5
      vertex 11.7678 -5.01777 -1.25
    endloop
  endfacet
  facet normal -1 0 0
    outer loop
      vertex -16 6 -3.5
      vertex -16 4.95106 0.690983
      vertex -16 6 3.5
    endloop
  endfacet
  facet normal -1 0 0
    outer loop
      vertex -16 6 -3.5
      vertex -16 4 0
      vertex -16 4.95106 0.690983
    endloop
  endfacet
  facet normal -1 0 0
    outer loop
      vertex -16 0 0
      vertex -16 4 0
      vertex -16 6 -3.5
    endloop
  endfacet
  facet normal -1 0 0
    outer loop
      vertex -16 4 0
      vertex -16 0 0
      vertex -16 3.04894 0.690983
    endloop
  endfacet
  facet normal -1 -0 0
    outer loop
      vertex -16 3.04894 0.690983
      vertex -16 0 0
      vertex -16 0.951056 0.690983
    endloop
  endfacet
  facet normal -1 -0 0
    outer loop
      vertex -16 0 0
      vertex -16 -6 -3.5
      vertex -16 -0.951056 0.690983
    endloop
  endfacet
  facet normal -1 0 0
    outer loop
      vertex -16 -6 -3.5
      vertex -16 0 0
      vertex -16 6 -3.5
    endloop
  endfacet
  facet normal -1 0 0
    outer loop
      vertex -16 4.58778 1.80902
      vertex -16 6 3.5
      vertex -16 4.95106 0.690983
    endloop
  endfacet
  facet normal -1 0 0
    outer loop
      vertex -16 3.41221 1.80902
      vertex -16 6 3.5
      vertex -16 4.58778 1.80902
    endloop
  endfacet
  facet normal -1 0 0
    outer loop
      vertex -16 0.951056 0.690983
      vertex -16 3.41221 1.80902
      vertex -16 3.04894 0.690983
    endloop
  endfacet
  facet normal -1 0 0
    outer loop
      vertex -16 0.587785 1.80902
      vertex -16 3.41221 1.80902
      vertex -16 0.951056 0.690983
    endloop
  endfacet
  facet normal -1 0 0
    outer loop
      vertex -16 3.41221 1.80902
      vertex -16 0.587785 1.80902
      vertex -16 6 3.5
    endloop
  endfacet
  facet normal -1 0 0
    outer loop
      vertex -16 -0.587785 1.80902
      vertex -16 6 3.5
      vertex -16 0.587785 1.80902
    endloop
  endfacet
  facet normal -1 0 0
    outer loop
      vertex -16 -6 3.5
      vertex -16 -0.951056 0.690983
      vertex -16 -6 -3.5
    endloop
  endfacet
  facet normal -1 0 0
    outer loop
      vertex -16 -0.587785 1.80902
      vertex -16 -6 3.5
      vertex -16 6 3.5
    endloop
  endfacet
  facet normal -1 0 0
    outer loop
      vertex -16 -0.951056 0.690983
      vertex -16 -6 3.5
      vertex -16 -0.587785 1.80902
    endloop
  endfacet
  facet normal -0 0 1
    outer loop
      vertex -16 6 3.5
      vertex -12.5 -6 3.5
      vertex -12.5 6 3.5
    endloop
  endfacet
  facet normal 0 0 1
    outer loop
      vertex -12.5 -6 3.5
      vertex -16 6 3.5
      vertex -16 -6 3.5
    endloop
  endfacet
  facet normal -0 0 1
    outer loop
      vertex 12.5 6 3.5
      vertex 16 -6 3.5
      vertex 16 6 3.5
    endloop
  endfacet
  facet normal 0 0 1
    outer loop
      vertex 16 -6 3.5
      vertex 12.5 6 3.5
      vertex 12.5 -6 3.5
    endloop
  endfacet
  facet normal 1 0 0
    outer loop
      vertex 16 6 3.5
      vertex 16 4.95106 0.690983
      vertex 16 6 -3.5
    endloop
  endfacet
  facet normal 1 0 0
    outer loop
      vertex 16 6 3.5
      vertex 16 4.58778 1.80902
      vertex 16 4.95106 0.690983
    endloop
  endfacet
  facet normal 1 0 0
    outer loop
      vertex 16 6 3.5
      vertex 16 3.41221 1.80902
      vertex 16 4.58778 1.80902
    endloop
  endfacet
  facet normal 1 0 0
    outer loop
      vertex 16 3.41221 1.80902
      vertex 16 0.951056 0.690983
      vertex 16 3.04894 0.690983
    endloop
  endfacet
  facet normal 1 0 0
    outer loop
      vertex 16 0.587785 1.80902
      vertex 16 3.41221 1.80902
      vertex 16 6 3.5
    endloop
  endfacet
  facet normal 1 0 0
    outer loop
      vertex 16 3.41221 1.80902
      vertex 16 0.587785 1.80902
      vertex 16 0.951056 0.690983
    endloop
  endfacet
  facet normal 1 0 0
    outer loop
      vertex 16 6 3.5
      vertex 16 -0.587785 1.80902
      vertex 16 0.587785 1.80902
    endloop
  endfacet
  facet normal 1 0 0
    outer loop
      vertex 16 -0.587785 1.80902
      vertex 16 -6 3.5
      vertex 16 -0.951056 0.690983
    endloop
  endfacet
  facet normal 1 -0 0
    outer loop
      vertex 16 -6 3.5
      vertex 16 -0.587785 1.80902
      vertex 16 6 3.5
    endloop
  endfacet
  facet normal 1 -0 0
    outer loop
      vertex 16 4 0
      vertex 16 6 -3.5
      vertex 16 4.95106 0.690983
    endloop
  endfacet
  facet normal 1 0 0
    outer loop
      vertex 16 0 0
      vertex 16 4 0
      vertex 16 3.04894 0.690983
    endloop
  endfacet
  facet normal 1 0 0
    outer loop
      vertex 16 0 0
      vertex 16 3.04894 0.690983
      vertex 16 0.951056 0.690983
    endloop
  endfacet
  facet normal 1 0 0
    outer loop
      vertex 16 4 0
      vertex 16 0 0
      vertex 16 6 -3.5
    endloop
  endfacet
  facet normal 1 0 0
    outer loop
      vertex 16 -6 -3.5
      vertex 16 -0.951056 0.690983
      vertex 16 -6 3.5
    endloop
  endfacet
  facet normal 1 0 0
    outer loop
      vertex 16 -0.951056 0.690983
      vertex 16 -6 -3.5
      vertex 16 0 0
    endloop
  endfacet
  facet normal 1 0 0
    outer loop
      vertex 16 0 0
      vertex 16 -6 -3.5
      vertex 16 6 -3.5
    endloop
  endfacet
  facet normal 0 0 -1
    outer loop
      vertex 11.7678 -1.48223 -3.5
      vertex 12.5 -0.5 -3.5
      vertex 12.5 -3.25 -3.5
    endloop
  endfacet
  facet normal 0 0 -1
    outer loop
      vertex 10 -0.75 -3.5
      vertex 12.5 -0.5 -3.5
      vertex 11.7678 -1.48223 -3.5
    endloop
  endfacet
  facet normal 0 0 -1
    outer loop
      vertex -7.5 -3.25 -3.5
      vertex 8.23223 -1.48223 -3.5
      vertex 7.5 -3.25 -3.5
    endloop
  endfacet
  facet normal 0 0 -1
    outer loop
      vertex -8.23223 -1.48223 -3.5
      vertex 8.23223 -1.48223 -3.5
      vertex -7.5 -3.25 -3.5
    endloop
  endfacet
  facet normal 0 0 -1
    outer loop
      vertex 8.23223 -1.48223 -3.5
      vertex -8.23223 -1.48223 -3.5
      vertex 10 -0.75 -3.5
    endloop
  endfacet
  facet normal 0 0 -1
    outer loop
      vertex -10 -0.75 -3.5
      vertex 10 -0.75 -3.5
      vertex -8.23223 -1.48223 -3.5
    endloop
  endfacet
  facet normal 0 0 -1
    outer loop
      vertex 10 -0.75 -3.5
      vertex -10 -0.75 -3.5
      vertex 12.5 -0.5 -3.5
    endloop
  endfacet
  facet normal 0 0 -1
    outer loop
      vertex -10 -0.75 -3.5
      vertex -12.5 -0.5 -3.5
      vertex 12.5 -0.5 -3.5
    endloop
  endfacet
  facet normal 0 0 -1
    outer loop
      vertex -11.7678 -1.48223 -3.5
      vertex -12.5 -0.5 -3.5
      vertex -10 -0.75 -3.5
    endloop
  endfacet
  facet normal 0 0 -1
    outer loop
      vertex -12.5 -0.5 -3.5
      vertex -11.7678 -1.48223 -3.5
      vertex -12.5 -3.25 -3.5
    endloop
  endfacet
  facet normal 0 0 -1
    outer loop
      vertex 12.5 -0.5 -3.5
      vertex 16 -6 -3.5
      vertex 12.5 -3.25 -3.5
    endloop
  endfacet
  facet normal 0 0 -1
    outer loop
      vertex 16 -6 -3.5
      vertex 11.7678 -5.01777 -3.5
      vertex 12.5 -3.25 -3.5
    endloop
  endfacet
  facet normal 0 0 -1
    outer loop
      vertex 16 -6 -3.5
      vertex 10 -5.75 -3.5
      vertex 11.7678 -5.01777 -3.5
    endloop
  endfacet
  facet normal 0 0 -1
    outer loop
      vertex 8.23223 -5.01777 -3.5
      vertex -7.5 -3.25 -3.5
      vertex 7.5 -3.25 -3.5
    endloop
  endfacet
  facet normal 0 0 -1
    outer loop
      vertex -8.23223 -5.01777 -3.5
      vertex 8.23223 -5.01777 -3.5
      vertex 10 -5.75 -3.5
    endloop
  endfacet
  facet normal 0 0 -1
    outer loop
      vertex 8.23223 -5.01777 -3.5
      vertex -8.23223 -5.01777 -3.5
      vertex -7.5 -3.25 -3.5
    endloop
  endfacet
  facet normal 0 0 -1
    outer loop
      vertex -10 -5.75 -3.5
      vertex 10 -5.75 -3.5
      vertex 16 -6 -3.5
    endloop
  endfacet
  facet normal 0 0 -1
    outer loop
      vertex 10 -5.75 -3.5
      vertex -10 -5.75 -3.5
      vertex -8.23223 -5.01777 -3.5
    endloop
  endfacet
  facet normal 0 0 -1
    outer loop
      vertex -16 -6 -3.5
      vertex -12.5 -0.5 -3.5
      vertex -12.5 -3.25 -3.5
    endloop
  endfacet
  facet normal 0 0 -1
    outer loop
      vertex -16 -6 -3.5
      vertex -10 -5.75 -3.5
      vertex 16 -6 -3.5
    endloop
  endfacet
  facet normal 0 0 -1
    outer loop
      vertex -16 -6 -3.5
      vertex -11.7678 -5.01777 -3.5
      vertex -10 -5.75 -3.5
    endloop
  endfacet
  facet normal 0 0 -1
    outer loop
      vertex -16 -6 -3.5
      vertex -12.5 -3.25 -3.5
      vertex -11.7678 -5.01777 -3.5
    endloop
  endfacet
  facet normal -0 0 -1
    outer loop
      vertex -12.5 -0.5 -3.5
      vertex -16 -6 -3.5
      vertex -16 6 -3.5
    endloop
  endfacet
  facet normal 0 0 -1
    outer loop
      vertex -12.5 -0.5 -3.5
      vertex -16 6 -3.5
      vertex -12.5 6 -3.5
    endloop
  endfacet
  facet normal 0 0 -1
    outer loop
      vertex 16 -6 -3.5
      vertex 12.5 -0.5 -3.5
      vertex 16 6 -3.5
    endloop
  endfacet
  facet normal -0 0 -1
    outer loop
      vertex 16 6 -3.5
      vertex 12.5 -0.5 -3.5
      vertex 12.5 6 -3.5
    endloop
  endfacet
  facet normal 0 -1 0
    outer loop
      vertex -16 -6 3.5
      vertex -12.5 -6 -0.25
      vertex -12.5 -6 3.5
    endloop
  endfacet
  facet normal 0 -1 -0
    outer loop
      vertex -12.5 -6 -0.25
      vertex -16 -6 -3.5
      vertex 12.5 -6 -0.25
    endloop
  endfacet
  facet normal 0 -1 0
    outer loop
      vertex -16 -6 -3.5
      vertex -12.5 -6 -0.25
      vertex -16 -6 3.5
    endloop
  endfacet
  facet normal 0 -1 0
    outer loop
      vertex 12.5 -6 -0.25
      vertex 16 -6 3.5
      vertex 12.5 -6 3.5
    endloop
  endfacet
  facet normal 0 -1 0
    outer loop
      vertex 12.5 -6 -0.25
      vertex 16 -6 -3.5
      vertex 16 -6 3.5
    endloop
  endfacet
  facet normal 0 -1 0
    outer loop
      vertex 16 -6 -3.5
      vertex 12.5 -6 -0.25
      vertex -16 -6 -3.5
    endloop
  endfacet
  facet normal 0 1 -0
    outer loop
      vertex 16 6 -3.5
      vertex 12.5 6 3.5
      vertex 16 6 3.5
    endloop
  endfacet
  facet normal 0 1 0
    outer loop
      vertex 12.5 6 3.5
      vertex 16 6 -3.5
      vertex 12.5 6 -3.5
    endloop
  endfacet
  facet normal 0 1 -0
    outer loop
      vertex -12.5 6 -3.5
      vertex -16 6 3.5
      vertex -12.5 6 3.5
    endloop
  endfacet
  facet normal 0 1 0
    outer loop
      vertex -16 6 3.5
      vertex -12.5 6 -3.5
      vertex -16 6 -3.5
    endloop
  endfacet
  facet normal 1 0 0
    outer loop
      vertex -12.5 -0.951056 0.690983
      vertex -12.5 -0.5 -0.25
      vertex -12.5 0 0
    endloop
  endfacet
  facet normal 1 0 0
    outer loop
      vertex -12.5 -6 -0.25
      vertex -12.5 -0.951056 0.690983
      vertex -12.5 -6 3.5
    endloop
  endfacet
  facet normal 1 0 0
    outer loop
      vertex -12.5 -0.951056 0.690983
      vertex -12.5 -6 -0.25
      vertex -12.5 -0.5 -0.25
    endloop
  endfacet
  facet normal 1 0 0
    outer loop
      vertex -12.5 6 3.5
      vertex -12.5 4.95106 0.690983
      vertex -12.5 6 -3.5
    endloop
  endfacet
  facet normal 1 0 0
    outer loop
      vertex -12.5 6 3.5
      vertex -12.5 4.58778 1.80902
      vertex -12.5 4.95106 0.690983
    endloop
  endfacet
  facet normal 1 0 0
    outer loop
      vertex -12.5 6 3.5
      vertex -12.5 3.41221 1.80902
      vertex -12.5 4.58778 1.80902
    endloop
  endfacet
  facet normal 1 0 0
    outer loop
      vertex -12.5 3.41221 1.80902
      vertex -12.5 0.951056 0.690983
      vertex -12.5 3.04894 0.690983
    endloop
  endfacet
  facet normal 1 0 0
    outer loop
      vertex -12.5 0.587785 1.80902
      vertex -12.5 3.41221 1.80902
      vertex -12.5 6 3.5
    endloop
  endfacet
  facet normal 1 0 0
    outer loop
      vertex -12.5 3.41221 1.80902
      vertex -12.5 0.587785 1.80902
      vertex -12.5 0.951056 0.690983
    endloop
  endfacet
  facet normal 1 0 0
    outer loop
      vertex -12.5 6 3.5
      vertex -12.5 -0.587785 1.80902
      vertex -12.5 0.587785 1.80902
    endloop
  endfacet
  facet normal 1 0 0
    outer loop
      vertex -12.5 -0.587785 1.80902
      vertex -12.5 -6 3.5
      vertex -12.5 -0.951056 0.690983
    endloop
  endfacet
  facet normal 1 -0 0
    outer loop
      vertex -12.5 -6 3.5
      vertex -12.5 -0.587785 1.80902
      vertex -12.5 6 3.5
    endloop
  endfacet
  facet normal 1 -0 0
    outer loop
      vertex -12.5 4 0
      vertex -12.5 6 -3.5
      vertex -12.5 4.95106 0.690983
    endloop
  endfacet
  facet normal 1 0 0
    outer loop
      vertex -12.5 0 0
      vertex -12.5 4 0
      vertex -12.5 3.04894 0.690983
    endloop
  endfacet
  facet normal 1 0 0
    outer loop
      vertex -12.5 0 0
      vertex -12.5 3.04894 0.690983
      vertex -12.5 0.951056 0.690983
    endloop
  endfacet
  facet normal 1 0 0
    outer loop
      vertex -12.5 4 0
      vertex -12.5 0 0
      vertex -12.5 -0.5 -3.5
    endloop
  endfacet
  facet normal 1 0 0
    outer loop
      vertex -12.5 -0.5 -3.5
      vertex -12.5 0 0
      vertex -12.5 -0.5 -0.25
    endloop
  endfacet
  facet normal 1 0 0
    outer loop
      vertex -12.5 4 0
      vertex -12.5 -0.5 -3.5
      vertex -12.5 6 -3.5
    endloop
  endfacet
  facet normal -1 0 0
    outer loop
      vertex 12.5 6 -3.5
      vertex 12.5 4.95106 0.690983
      vertex 12.5 6 3.5
    endloop
  endfacet
  facet normal -1 0 0
    outer loop
      vertex 12.5 6 -3.5
      vertex 12.5 4 0
      vertex 12.5 4.95106 0.690983
    endloop
  endfacet
  facet normal -1 0 0
    outer loop
      vertex 12.5 -0.5 -3.5
      vertex 12.5 4 0
      vertex 12.5 6 -3.5
    endloop
  endfacet
  facet normal -1 0 -0
    outer loop
      vertex 12.5 0 0
      vertex 12.5 4 0
      vertex 12.5 -0.5 -3.5
    endloop
  endfacet
  facet normal -1 0 0
    outer loop
      vertex 12.5 4 0
      vertex 12.5 0 0
      vertex 12.5 3.04894 0.690983
    endloop
  endfacet
  facet normal -1 -0 0
    outer loop
      vertex 12.5 3.04894 0.690983
      vertex 12.5 0 0
      vertex 12.5 0.951056 0.690983
    endloop
  endfacet
  facet normal -1 0 0
    outer loop
      vertex 12.5 -0.5 -0.25
      vertex 12.5 0 0
      vertex 12.5 -0.5 -3.5
    endloop
  endfacet
  facet normal -1 0 0
    outer loop
      vertex 12.5 -0.5 -0.25
      vertex 12.5 -0.951056 0.690983
      vertex 12.5 0 0
    endloop
  endfacet
  facet normal -1 0 -0
    outer loop
      vertex 12.5 -0.951056 0.690983
      vertex 12.5 -0.5 -0.25
      vertex 12.5 -6 -0.25
    endloop
  endfacet
  facet normal -1 0 0
    outer loop
      vertex 12.5 4.58778 1.80902
      vertex 12.5 6 3.5
      vertex 12.5 4.95106 0.690983
    endloop
  endfacet
  facet normal -1 0 0
    outer loop
      vertex 12.5 3.41221 1.80902
      vertex 12.5 6 3.5
      vertex 12.5 4.58778 1.80902
    endloop
  endfacet
  facet normal -1 0 0
    outer loop
      vertex 12.5 0.951056 0.690983
      vertex 12.5 3.41221 1.80902
      vertex 12.5 3.04894 0.690983
    endloop
  endfacet
  facet normal -1 0 0
    outer loop
      vertex 12.5 0.587785 1.80902
      vertex 12.5 3.41221 1.80902
      vertex 12.5 0.951056 0.690983
    endloop
  endfacet
  facet normal -1 0 0
    outer loop
      vertex 12.5 3.41221 1.80902
      vertex 12.5 0.587785 1.80902
      vertex 12.5 6 3.5
    endloop
  endfacet
  facet normal -1 0 0
    outer loop
      vertex 12.5 -0.587785 1.80902
      vertex 12.5 6 3.5
      vertex 12.5 0.587785 1.80902
    endloop
  endfacet
  facet normal -1 0 0
    outer loop
      vertex 12.5 -6 3.5
      vertex 12.5 -0.951056 0.690983
      vertex 12.5 -6 -0.25
    endloop
  endfacet
  facet normal -1 0 0
    outer loop
      vertex 12.5 -0.587785 1.80902
      vertex 12.5 -6 3.5
      vertex 12.5 6 3.5
    endloop
  endfacet
  facet normal -1 0 0
    outer loop
      vertex 12.5 -0.951056 0.690983
      vertex 12.5 -6 3.5
      vertex 12.5 -0.587785 1.80902
    endloop
  endfacet
  facet normal 0 1 -0
    outer loop
      vertex 12.5 -0.5 -3.5
      vertex -12.5 -0.5 -0.25
      vertex 12.5 -0.5 -0.25
    endloop
  endfacet
  facet normal 0 1 0
    outer loop
      vertex -12.5 -0.5 -0.25
      vertex 12.5 -0.5 -3.5
      vertex -12.5 -0.5 -3.5
    endloop
  endfacet
  facet normal 0 0 1
    outer loop
      vertex 12.5 -0.5 -0.25
      vertex 11.25 -3.25 -0.25
      vertex 12.5 -6 -0.25
    endloop
  endfacet
  facet normal 0 0 1
    outer loop
      vertex 12.5 -0.5 -0.25
      vertex 10.3863 -2.06118 -0.25
      vertex 11.25 -3.25 -0.25
    endloop
  endfacet
  facet normal 0 0 1
    outer loop
      vertex 12.5 -0.5 -0.25
      vertex 8.98873 -2.51527 -0.25
      vertex 10.3863 -2.06118 -0.25
    endloop
  endfacet
  facet normal 0 0 1
    outer loop
      vertex 8.98873 -2.51527 -0.25
      vertex -8.75 -3.25 -0.25
      vertex 8.98873 -3.98473 -0.25
    endloop
  endfacet
  facet normal -0 0 1
    outer loop
      vertex -9.61373 -2.06118 -0.25
      vertex 8.98873 -2.51527 -0.25
      vertex 12.5 -0.5 -0.25
    endloop
  endfacet
  facet normal 0 0 1
    outer loop
      vertex 8.98873 -2.51527 -0.25
      vertex -9.61373 -2.06118 -0.25
      vertex -8.75 -3.25 -0.25
    endloop
  endfacet
  facet normal 0 0 1
    outer loop
      vertex -11.0113 -2.51527 -0.25
      vertex -12.5 -0.5 -0.25
      vertex -11.0113 -3.98473 -0.25
    endloop
  endfacet
  facet normal 0 0 1
    outer loop
      vertex -9.61373 -2.06118 -0.25
      vertex -12.5 -0.5 -0.25
      vertex -11.0113 -2.51527 -0.25
    endloop
  endfacet
  facet normal -0 0 1
    outer loop
      vertex -12.5 -0.5 -0.25
      vertex -9.61373 -2.06118 -0.25
      vertex 12.5 -0.5 -0.25
    endloop
  endfacet
  facet normal -0 0 1
    outer loop
      vertex 10.3863 -4.43882 -0.25
      vertex 12.5 -6 -0.25
      vertex 11.25 -3.25 -0.25
    endloop
  endfacet
  facet normal 0 0 1
    outer loop
      vertex 8.98873 -3.98473 -0.25
      vertex 12.5 -6 -0.25
      vertex 10.3863 -4.43882 -0.25
    endloop
  endfacet
  facet normal 0 0 1
    outer loop
      vertex -9.61373 -4.43882 -0.25
      vertex 8.98873 -3.98473 -0.25
      vertex -8.75 -3.25 -0.25
    endloop
  endfacet
  facet normal 0 0 1
    outer loop
      vertex 8.98873 -3.98473 -0.25
      vertex -9.61373 -4.43882 -0.25
      vertex 12.5 -6 -0.25
    endloop
  endfacet
  facet normal 0 0 1
    outer loop
      vertex -9.61373 -4.43882 -0.25
      vertex -12.5 -6 -0.25
      vertex 12.5 -6 -0.25
    endloop
  endfacet
  facet normal 0 0 1
    outer loop
      vertex -11.0113 -3.98473 -0.25
      vertex -12.5 -6 -0.25
      vertex -9.61373 -4.43882 -0.25
    endloop
  endfacet
  facet normal 0 0 1
    outer loop
      vertex -12.5 -6 -0.25
      vertex -11.0113 -3.98473 -0.25
      vertex -12.5 -0.5 -0.25
    endloop
  endfacet
endsolid OpenSCAD_Model
